<svg width="20" height="20" viewBox="0 0 20 20" fill="none" xmlns="http://www.w3.org/2000/svg">
<path d="M9.99992 12.6667C11.4727 12.6667 12.6666 11.4728 12.6666 10C12.6666 8.52728 11.4727 7.33337 9.99992 7.33337C8.52716 7.33337 7.33325 8.52728 7.33325 10C7.33325 11.4728 8.52716 12.6667 9.99992 12.6667Z" fill="white"/>
<path d="M7.50008 1.66663L5.97508 3.33329H3.33341C2.41675 3.33329 1.66675 4.08329 1.66675 4.99996V15C1.66675 15.9166 2.41675 16.6666 3.33341 16.6666H16.6667C17.5834 16.6666 18.3334 15.9166 18.3334 15V4.99996C18.3334 4.08329 17.5834 3.33329 16.6667 3.33329H14.0251L12.5001 1.66663H7.50008ZM10.0001 14.1666C7.70008 14.1666 5.83342 12.3 5.83342 9.99996C5.83342 7.69996 7.70008 5.83329 10.0001 5.83329C12.3001 5.83329 14.1667 7.69996 14.1667 9.99996C14.1667 12.3 12.3001 14.1666 10.0001 14.1666Z" fill="white"/>
</svg>
