<svg width="500" height="357" viewBox="0 0 500 357" fill="none" xmlns="http://www.w3.org/2000/svg">
<path fill-rule="evenodd" clip-rule="evenodd" d="M261.819 134.401C261.43 133.84 260.738 134.507 261.027 134.912C261.291 134.742 261.555 134.572 261.819 134.401ZM272.519 137.52C272.084 137.303 271.935 137.645 271.764 138.039C271.714 138.154 271.662 138.274 271.6 138.386C271.99 138.602 272.17 138.224 272.353 137.841C272.406 137.73 272.46 137.618 272.519 137.52ZM264.983 124.05C264.11 122.933 264.046 123.308 263.973 124.582C264.142 124.493 264.311 124.404 264.479 124.315C264.647 124.227 264.816 124.139 264.983 124.05ZM384.372 63.6172C383.272 64.1336 383.155 64.5087 384.045 65.1405C384.15 64.649 384.228 64.2887 384.372 63.6172ZM261.432 115.719C261.691 116.572 262.756 116.756 262.756 115.719H261.432ZM343.865 71.7202C344.499 71.9226 344.823 72.0263 345.108 71.9608C345.406 71.8928 345.662 71.6414 346.184 71.128C345.927 71.194 345.696 71.2532 345.475 71.3094C345.297 71.3549 345.125 71.3984 344.952 71.4429C344.618 71.528 344.277 71.615 343.865 71.7202ZM314.439 159.237C314.064 158.706 313.689 158.176 313.314 157.645C313.187 158.035 313.06 158.426 312.934 158.816L312.933 158.818L312.839 159.106C313.372 159.15 313.906 159.193 314.439 159.237ZM390.472 50.565C390.323 51.2741 390.249 51.6247 390.389 51.8252C390.526 52.0213 390.866 52.0736 391.54 52.1777L391.035 51.4144L390.971 51.3186C390.817 51.0858 390.655 50.8423 390.472 50.565ZM384.519 52.7832C384.473 52.5523 384.426 52.321 384.379 52.0902L384.372 52.055C384.327 51.8359 384.283 51.6169 384.239 51.3973C384.159 51.7499 383.854 51.7308 383.558 51.7117C383.303 51.6956 383.054 51.6799 382.96 51.9015C382.491 52.9978 383.982 52.8492 384.519 52.7832ZM271.153 134.59C270.826 133.941 270.754 133.891 270.041 133.755C270.225 134.402 270.224 134.908 270.223 135.556V135.69C271.388 135.525 271.754 135.44 271.775 134.197L271.153 134.59ZM267.755 136.882C267.601 137.457 267.166 137.318 266.795 137.199C266.458 137.091 266.174 137.001 266.2 137.473C266.185 137.2 267.537 138.993 267.46 138.935C268.14 139.449 268.536 139.401 269.307 138.811C268.208 138.769 268.081 138.219 267.911 137.479C267.867 137.291 267.821 137.09 267.755 136.882ZM393.003 52.2462C392.764 52.7988 392.524 53.3519 392.284 53.9045L392.231 54.0267C392.009 54.5387 391.787 55.0507 391.565 55.5622C391.464 55.7945 391.386 55.9994 391.318 56.1764C391 57.0146 390.913 57.242 389.749 56.8747C389.788 56.8063 389.884 56.6708 390.003 56.5011V56.5006C390.363 55.9896 390.942 55.1676 390.877 54.9187C390.817 54.6844 390.243 54.3949 389.723 54.1328C389.401 53.9705 389.101 53.8189 388.955 53.6971C388.533 53.345 388.379 53.0242 388.217 52.6849C388.121 52.4853 388.022 52.2785 387.863 52.0555C388.033 51.4961 387.901 51.2344 387.466 51.2721C387.341 51.61 387.216 51.9474 387.09 52.2848L387.083 52.3064L386.985 52.5685C387.008 53.0883 387.265 53.2868 387.567 53.5201C387.799 53.6996 388.058 53.8991 388.257 54.281L388.295 54.3539C388.583 54.9069 388.666 55.0664 388.62 55.1671C388.601 55.2077 388.561 55.2385 388.505 55.282C388.389 55.3725 388.203 55.5167 387.993 55.9143C387.799 56.2806 387.665 56.6821 387.535 57.0723C387.286 57.8151 387.05 58.5188 386.445 58.8689C386.941 59.0875 387.437 59.3061 387.933 59.5242C386.775 60.7995 389.184 60.1785 389.583 60.0548L389.582 60.0572L389.581 60.0597C389.174 60.9262 388.767 61.7922 388.36 62.6588C387.457 62.1517 386.892 61.3081 386.33 60.469C386.132 60.1741 385.935 59.8792 385.723 59.6C385.104 60.7541 384.485 61.9086 383.866 63.0632C384.148 63.0373 384.43 63.0109 384.712 62.9849C385.046 62.9541 385.38 62.9233 385.714 62.892C385.694 62.9292 385.639 63.0148 385.566 63.1277L385.565 63.1282C385.315 63.516 384.854 64.228 384.906 64.4202C385.03 64.8774 385.525 65.0119 386.01 65.1434C386.599 65.3038 387.174 65.4598 387.046 66.1865C387.016 66.3562 385.137 68.257 384.815 68.4404C385.013 68.5299 385.189 68.5925 385.34 68.6467C385.905 68.8487 386.115 68.924 385.848 69.8067C385.409 69.5411 384.971 69.2751 384.533 69.0091C384.45 69.1573 384.365 69.3045 384.28 69.4521L384.28 69.4526C383.978 69.9749 383.675 70.5006 383.489 71.0747C383.534 71.5564 383.449 72.0126 383.231 72.4439C382.973 72.8298 382.682 73.1897 382.358 73.5232C382.102 74.2005 382.019 77.8974 382.328 78.5003C383.018 77.6069 384.559 79.184 381.958 79.184C381.741 79.184 381.568 79.1757 381.427 79.1683C380.83 79.1385 380.813 79.1375 380.46 79.9498C380.118 80.7395 379.933 81.4286 380.903 81.5044C380.317 82.6633 380.303 83.6086 380.285 84.7323C380.281 85.0072 380.277 85.2927 380.264 85.5945C380.222 86.5583 380.004 87.5173 379.788 88.4679C379.725 88.7457 379.662 89.0224 379.604 89.2987C379.719 89.1325 379.835 88.9662 379.951 88.7995C380.066 88.6332 380.182 88.4669 380.297 88.3002C380.808 89.3931 380.581 90.3447 380.319 91.4382C380.262 91.6773 380.203 91.9238 380.149 92.1795C379.778 91.6881 379.594 91.9819 379.4 92.292C379.256 92.5218 379.107 92.7605 378.871 92.693C378.205 92.5023 378.227 92.3414 378.262 92.0886C378.287 91.9135 378.317 91.6944 378.13 91.3907C378.043 91.2509 377.977 91.1325 377.919 91.0289C377.714 90.6582 377.614 90.4782 377.039 90.1711C376.342 89.798 375.267 89.6821 374.309 89.5789C373.929 89.5379 373.568 89.4992 373.256 89.4469C371.428 89.1413 369.597 89.0616 367.748 88.9809L367.674 88.9775C360.658 88.6723 353.666 88.5941 346.651 88.9809C340.198 89.3369 333.587 90.2445 327.259 91.4739C326.808 91.5614 326.357 91.6489 325.908 91.736C319.639 92.9487 313.495 94.1375 307.406 96.2031C306.845 96.3938 306.283 96.6765 305.722 96.9586V96.9591C305.022 97.3112 304.322 97.6633 303.623 97.8369C303.13 97.9596 302.637 98.031 302.14 98.1034C301.431 98.2061 300.715 98.3098 299.982 98.565C298.33 99.1401 296.647 99.6384 294.964 100.137C293.604 100.539 292.244 100.942 290.899 101.385C290.039 101.669 289.159 101.941 288.274 102.214C285.825 102.97 283.33 103.74 281.064 104.827C280.385 105.153 279.737 105.538 279.089 105.923C278.459 106.297 277.829 106.672 277.168 106.993C276.891 107.128 276.573 107.26 276.238 107.399C275.045 107.894 273.638 108.478 273.118 109.584C272.858 110.137 272.902 110.537 273.064 111.11C273.362 112.17 273.603 112.146 274.329 112.076C274.39 112.069 274.454 112.063 274.522 112.057C275.293 111.989 276.205 111.585 277.073 111.202C277.583 110.976 278.078 110.757 278.518 110.618C281.771 109.59 285.063 108.767 288.371 107.943C290.868 107.322 293.37 106.498 295.866 105.677C299.308 104.544 302.741 103.415 306.138 102.82C307.885 102.515 309.585 101.947 311.289 101.377C312.975 100.813 314.665 100.248 316.405 99.9372C316.655 99.8927 317.058 99.7465 317.511 99.5827C318.449 99.2428 319.597 98.8267 320.022 99.0824C320.133 99.1499 320.353 99.7118 320.53 100.163C320.617 100.385 320.693 100.581 320.741 100.676C321.257 101.71 321.849 102.709 322.542 103.636C324.077 105.688 325.995 107.446 327.897 109.189L327.897 109.189C328.586 109.82 329.272 110.449 329.937 111.089C332.034 113.108 333.93 115.28 335.833 117.46V117.461C336.523 118.25 337.213 119.041 337.914 119.826C338.039 119.682 338.163 119.537 338.287 119.393L338.601 119.027C338.379 120.744 339.541 122.02 340.615 123.199C340.66 123.248 340.705 123.298 340.75 123.348C340.797 123.4 340.844 123.451 340.891 123.503C342.242 125.007 343.328 126.421 344.394 128.136C345 129.11 345.723 130.001 346.438 130.882C346.755 131.273 347.071 131.661 347.374 132.055C347.939 132.788 348.394 133.61 348.852 134.436C349.181 135.03 349.511 135.627 349.885 136.195C350.667 137.384 351.444 138.581 352.22 139.778C353.483 141.724 354.744 143.669 356.025 145.574C356.999 147.023 357.769 148.654 358.54 150.303C358.724 150.698 359.02 151.218 359.344 151.785V151.785C360.095 153.099 360.992 154.672 360.992 155.559C360.948 155.767 361.069 156.326 361.197 156.91C361.449 158.071 361.724 159.332 360.768 158.16C360.703 158.26 360.638 158.361 360.573 158.462L360.478 158.609C360.415 158.708 360.351 158.806 360.288 158.904C360.218 159.012 360.148 159.12 360.079 159.228C360.472 159.062 360.865 158.897 361.258 158.732C360.506 159.415 361.113 159.723 361.678 160.01C362.009 160.177 362.325 160.337 362.343 160.561C362.252 160.649 362.162 160.737 362.071 160.824L361.747 161.138C361.408 161.839 360.966 161.93 360.423 161.411C360.175 161.426 360.009 161.377 359.852 161.33C359.631 161.265 359.428 161.205 359.039 161.335C359.316 161.769 359.628 161.895 359.918 162.012C360.295 162.164 360.637 162.302 360.819 163.08C361.048 164.057 360.51 164.417 359.796 164.894C359.604 165.022 359.4 165.158 359.194 165.318V165.317L359.169 165.312C359.222 164.547 358.849 163.984 358.179 163.627V165.131C358.363 165.165 358.547 165.198 358.732 165.232L358.737 165.233L359.169 165.312C359.168 165.321 359.168 165.33 359.167 165.339L359.194 165.318C359.036 165.924 358.574 165.812 358.022 165.679C357.925 165.656 357.825 165.632 357.724 165.611C356.532 165.365 355.245 164.947 354.026 164.551C353.645 164.427 353.269 164.305 352.905 164.191C349.611 163.161 346.291 162.292 342.885 161.588C337.102 160.391 331.354 160.127 325.56 159.86H325.559C323.567 159.768 321.569 159.677 319.562 159.546C319.572 159.503 319.582 159.463 319.592 159.424C319.69 159.013 319.731 158.846 319.706 158.689C319.689 158.582 319.641 158.479 319.561 158.306C319.55 158.281 319.538 158.255 319.525 158.227C319.649 158.498 319.427 158.521 319.202 158.545C318.859 158.581 318.511 158.617 319.372 159.53C317.121 159.899 314.758 159.869 312.409 159.838C310.956 159.82 309.509 159.801 308.096 159.877C308.135 159.792 308.184 159.704 308.232 159.616C308.406 159.305 308.583 158.989 308.294 158.772C307.04 160.59 303.683 160.547 300.817 160.51C299.684 160.496 298.627 160.482 297.808 160.585C296.818 160.71 295.836 160.901 294.854 161.092C294.151 161.229 293.448 161.366 292.743 161.478C292.625 161.497 292.506 161.515 292.388 161.533C291.676 161.645 290.96 161.757 290.263 161.946C290.009 162.014 289.697 162.156 289.367 162.305C288.73 162.594 288.029 162.912 287.562 162.785C288.279 161.336 287.929 161.755 287.591 162.16C287.44 162.341 287.291 162.52 287.24 162.527C287.142 162.542 287.03 162.56 286.908 162.58C286.416 162.659 285.759 162.766 285.193 162.766C285.525 161.427 285.956 160.132 286.386 158.837C286.999 156.991 287.612 155.147 287.939 153.181C287.982 152.928 288.033 152.656 288.087 152.371V152.371C288.475 150.308 288.992 147.558 287.186 146.26C286.291 145.616 284.941 145.373 283.771 145.163H283.77C283.468 145.108 283.177 145.056 282.91 144.999C282.465 144.905 281.916 144.842 281.334 144.774C280.046 144.626 278.595 144.457 277.739 143.899C277.374 143.661 277.117 143.431 276.87 143.209C276.462 142.842 276.084 142.502 275.29 142.2C275 142.09 274.741 141.98 274.5 141.877C273.524 141.462 272.853 141.177 271.663 141.539C271.76 141.418 271.862 141.302 271.962 141.189C272.485 140.599 272.922 140.105 271.928 139.454C271.735 139.328 271.467 139.32 271.205 139.312C270.809 139.3 270.424 139.288 270.322 138.871C269.678 139.328 269.618 139.72 269.539 140.232C269.51 140.419 269.479 140.622 269.416 140.85C269.438 141.211 269.532 141.555 269.701 141.882L269.106 142.122L268.306 142.445C268.483 141.97 268.245 141.947 267.987 141.923C267.813 141.907 267.631 141.89 267.561 141.732C267.37 141.299 267.405 140.697 267.435 140.156C267.446 139.966 267.456 139.783 267.456 139.618C266.498 139.921 265.495 140.297 265.076 141.297C264.147 140.742 264.246 140.596 264.626 140.037C264.726 139.89 264.845 139.714 264.97 139.495C263.985 139.261 263.776 139.77 263.626 140.588C263.254 140.472 262.88 140.357 262.506 140.242L262.495 140.238L262.066 140.105C263.238 140.097 263.52 139.179 263.547 138.181C263.351 138.245 263.155 138.309 262.959 138.373L262.953 138.375C262.695 138.459 262.437 138.543 262.179 138.627L261.899 140.075C261.246 140.63 259.642 139.769 258.901 139.372L258.9 139.371C258.826 139.332 258.761 139.297 258.706 139.268L258.517 139.17C256.547 138.148 255.829 137.776 256.118 135.354C256.221 134.493 256.374 133.629 256.528 132.764C256.748 131.529 256.969 130.292 257.041 129.055C257.161 126.992 256.963 124.804 256.774 122.717C256.749 122.439 256.724 122.163 256.7 121.889C256.554 120.221 256.375 118.562 256.195 116.905V116.904C255.889 114.081 255.585 111.263 255.444 108.411C255.412 107.755 255.378 107.098 255.345 106.442L255.345 106.441C255.254 104.646 255.163 102.852 255.093 101.056C255.08 100.734 255.051 100.408 255.023 100.085C254.88 98.4526 254.746 96.9337 256.77 96.7889C256.474 95.8452 257.362 94.7537 258.278 94.2368C258.598 93.5047 258.948 93.4392 259.329 94.0412C259.66 94.1453 259.967 94.0964 260.251 93.8935C261.067 93.7082 261.982 92.9262 262.844 92.1898C263.393 91.7213 263.92 91.2714 264.386 91.0049C264.704 90.823 265.126 90.6181 265.586 90.3941H265.587C266.824 89.7926 268.35 89.0508 268.962 88.2268C269.416 87.6151 269.232 87.3842 269.025 87.1241C268.862 86.9187 268.685 86.6957 268.794 86.2536C269.111 84.9705 270.213 86.6155 270.507 87.0542C270.526 87.0835 270.543 87.108 270.555 87.1251C270.686 86.9925 270.936 86.8229 271.215 86.6336C271.81 86.2307 272.535 85.7387 272.522 85.3279L271.365 85.1211C271.489 85.0497 271.657 84.9362 271.845 84.8096C272.297 84.504 272.865 84.1201 273.211 84.0521C273.389 84.0174 273.515 83.9802 273.609 83.9524C273.725 83.9181 273.793 83.8976 273.852 83.9132C273.935 83.9347 274.001 84.0291 274.159 84.2575C274.222 84.3485 274.3 84.4604 274.399 84.5974C274.464 84.4961 274.556 84.3294 274.661 84.1372V84.1367C274.932 83.6448 275.295 82.9831 275.549 82.8105C275.649 82.743 276.036 82.6887 276.38 82.6408C276.623 82.6066 276.844 82.5758 276.93 82.545C277.536 82.3303 277.772 81.9719 277.999 81.6266C278.181 81.3503 278.357 81.0818 278.713 80.9019C278.922 80.7972 279.156 80.8344 279.378 80.8701C279.572 80.9014 279.756 80.9307 279.908 80.8642C280.182 80.7444 280.312 80.472 280.443 80.1997C280.561 79.9527 280.68 79.7058 280.905 79.5713C281.126 79.4388 281.531 79.4373 281.933 79.4358C282.276 79.4348 282.617 79.4334 282.842 79.3512C283.383 79.1527 283.547 78.9634 283.777 78.6979C283.89 78.5664 284.02 78.4162 284.221 78.2363C284.706 77.8016 285.17 77.6519 285.655 77.4949C286.017 77.3781 286.39 77.2573 286.794 77.0113C287.273 76.7194 287.482 76.2475 287.675 75.8122C287.875 75.3594 288.058 74.9462 288.511 74.8151C289.022 74.668 289.369 74.7931 289.65 74.8944C290.022 75.0284 290.279 75.1208 290.646 74.487C290.704 74.3868 290.633 74.2665 290.554 74.1325C290.435 73.9325 290.299 73.7026 290.546 73.4625C290.988 73.0342 291.205 73.421 291.407 73.7819C291.438 73.8366 291.468 73.8909 291.499 73.9418L291.501 73.9388L291.503 73.9359C291.77 73.4298 292.037 72.9236 292.305 72.4175C293.094 72.8513 293.198 72.6777 293.385 72.3662C293.504 72.1681 293.656 71.9143 294.039 71.7251C294.249 71.6214 294.441 71.6659 294.637 71.7114C294.85 71.7603 295.067 71.8107 295.316 71.6747C295.527 71.5603 295.633 71.3647 295.739 71.171C295.81 71.0404 295.881 70.9109 295.982 70.8067C296.13 70.6561 296.257 70.4884 296.384 70.3211C296.676 69.9368 296.967 69.5553 297.492 69.39C297.219 69.4751 299.452 69.4106 299.253 69.3147C299.036 68.9949 298.818 68.6751 298.601 68.3553C298.837 68.3553 299.068 68.3602 299.294 68.3651H299.295C300.187 68.3832 301.019 68.4008 301.921 68.1196L301.939 68.1142C302.34 67.9895 302.952 67.7998 303.279 67.5484L303.307 67.5279C303.711 67.2173 303.888 67.0819 303.962 66.9034C304.018 66.7645 304.012 66.5997 304.001 66.3073C303.995 66.1542 303.988 65.9664 303.988 65.7288C305.251 66.5347 306.858 66.253 308.103 65.3185C308.382 65.1097 308.618 64.8833 308.852 64.6579C309.165 64.3566 309.476 64.0578 309.884 63.8055C310.19 63.6466 310.502 63.4979 310.818 63.36C311.213 62.9492 311.61 62.9453 312.007 63.3488C312.403 63.2422 312.517 63.159 312.702 63.0236C312.779 62.9668 312.87 62.9008 312.998 62.8201C313.123 62.5727 313.255 62.3297 313.398 62.0915C313.865 62.0426 314.325 61.958 314.779 61.8377C315.29 61.7003 315.742 61.5032 316.167 61.3184C317.207 60.8651 318.082 60.4846 319.244 61.2274L319.373 60.9658L319.377 60.9565C319.542 60.6186 319.708 60.2807 319.872 59.9428C320.365 60.7159 320.749 60.4186 321.259 60.022C321.469 59.8587 321.7 59.6787 321.969 59.5496C322.167 59.4552 322.395 59.3971 322.617 59.3403C322.83 59.2856 323.039 59.2323 323.21 59.1491C323.407 59.1956 323.605 59.2425 323.802 59.2895C323.969 58.7711 324.136 58.2528 324.303 57.7344C324.392 57.7691 324.549 57.8444 324.741 57.9359C325.277 58.1921 326.081 58.5755 326.376 58.5471C326.692 58.5173 327.041 58.2102 327.385 57.9085C327.667 57.6601 327.945 57.4151 328.196 57.332C328.681 57.172 328.791 57.2234 328.95 57.2987C329.07 57.3559 329.218 57.4258 329.577 57.4283C329.661 57.4288 329.739 57.4312 329.813 57.4332C330.303 57.4459 330.595 57.4537 331.077 56.9833C329.521 56.5779 330.886 56.3505 331.847 56.1901C332.044 56.1573 332.224 56.1275 332.358 56.0991C332.699 56.0282 332.994 55.9974 333.261 55.97C333.957 55.8982 334.46 55.8463 335.078 55.1412H334.19C334.839 54.549 334.846 54.5504 335.181 54.6228C335.298 54.6478 335.455 54.682 335.694 54.702C335.758 54.7074 335.871 54.7456 336.006 54.792C336.483 54.9549 337.249 55.2165 337.251 54.4937C338.443 55.1984 338.456 55.1999 339.685 54.882C339.908 54.8243 340.118 54.7133 340.328 54.6018C340.632 54.4409 340.938 54.2786 341.291 54.2722C341.569 54.2673 341.809 54.325 342.041 54.3803C342.296 54.4414 342.541 54.4996 342.813 54.4698C343.093 54.4399 344.001 54.1064 344.45 53.9411C344.501 53.9221 344.547 53.9054 344.584 53.8917C344.869 53.7876 345.106 53.6262 345.34 53.4673C345.586 53.3 345.827 53.1357 346.113 53.0453C346.441 52.9416 346.816 52.9587 347.193 52.9758C347.524 52.991 347.856 53.0061 348.158 52.9396C348.785 52.8012 349.329 52.5851 349.847 52.3782C350.919 51.9513 351.888 51.565 353.29 51.9861C353.506 50.1699 355.706 50.5117 356.976 50.7092L357.084 50.7259C357.316 50.7621 357.519 50.8134 357.707 50.8618C358.223 50.9934 358.638 51.0995 359.297 50.786C359.616 50.6349 359.875 50.4452 360.133 50.2564C360.469 50.0104 360.803 49.7659 361.264 49.609C361.791 49.43 362.47 49.2921 363.062 49.1718C363.174 49.1488 363.283 49.1268 363.388 49.1048C363.792 48.9767 364.205 48.9356 364.627 48.9821C365.077 49.0456 365.45 49.2505 365.746 49.5963C365.738 49.6153 365.744 49.6256 365.769 49.6236C365.761 49.6143 365.753 49.6055 365.746 49.5963C365.81 49.4437 366.795 48.7111 366.682 48.8016C366.913 48.6163 367.105 48.5116 367.275 48.4192C367.644 48.2177 367.904 48.0759 368.214 47.2876C367.951 47.2324 367.689 47.1766 367.426 47.1209C367.163 47.0656 366.901 47.0099 366.638 46.9541C366.731 46.9478 366.822 46.9414 366.91 46.9346C367.591 46.8832 368.141 46.8421 368.78 47.1218C368.992 47.2148 369.265 47.4769 369.547 47.7478C369.929 48.1155 370.329 48.4994 370.617 48.4999C371.52 48.5009 371.836 47.224 371.746 46.5595C372.505 48.3302 373.152 48.6251 374.854 47.7199C374.954 47.6666 375.054 47.6138 375.154 47.5605L375.167 47.5536C375.263 47.5028 375.359 47.4519 375.454 47.4006C375.859 46.9747 376.262 46.9825 376.663 47.4245C376.901 47.5546 377.138 47.6842 377.377 47.8143L377.557 47.5131C377.783 47.136 378.009 46.759 378.235 46.3815C378.843 47.2206 379.42 47.2617 380.411 47.0656C380.748 46.9991 381.259 46.6636 381.752 46.3404C382.258 46.0079 382.744 45.689 383 45.689C383.139 45.689 383.297 45.8514 383.476 46.0362C383.674 46.2392 383.897 46.4695 384.152 46.5424C384.958 46.7742 386.21 46.1913 386.497 45.4176C386.65 45.7404 386.803 46.0636 386.955 46.3869C387.05 46.2983 387.144 46.2093 387.24 46.1208C387.526 45.8529 387.812 45.5844 388.096 45.3145C388.198 46.1952 388.868 46.1815 389.453 46.1697C389.884 46.1609 390.267 46.1531 390.342 46.5047C390.431 46.9165 389.233 47.8099 388.519 48.3419C388.329 48.4833 388.174 48.5996 388.085 48.674C389.214 49.3566 390.602 48.1644 391.623 47.2876C391.83 47.1101 392.021 46.9453 392.193 46.8118C392.717 47.3825 392.895 47.6823 392.413 48.3351C391.971 48.9346 391.77 48.8094 391.536 48.6637C391.32 48.5292 391.077 48.3776 390.592 48.7625C390.927 49.3268 391.229 49.185 391.608 49.0075C391.705 48.9615 391.807 48.9136 391.917 48.8745C391.781 49.6701 391.902 49.7082 392.107 49.7728C392.254 49.8192 392.443 49.8794 392.613 50.2393C392.864 50.7699 392.902 51.1958 392.948 51.7103C392.963 51.8775 392.979 52.054 393.003 52.2462ZM237.45 121.043C237.905 121.004 238.034 121.215 238.149 121.404C238.247 121.565 238.335 121.71 238.604 121.674C238.831 121.645 239.015 121.403 239.202 121.155C239.366 120.94 239.532 120.72 239.735 120.631C240.654 120.228 241.99 120.166 243.215 120.109C243.79 120.083 244.341 120.057 244.813 119.997C245.592 119.9 246.325 119.671 247.05 119.445V119.444C247.731 119.232 248.405 119.021 249.105 118.923C249.7 118.84 250.134 118.948 250.698 119.113C250.739 119.126 250.779 119.137 250.817 119.148C251.344 119.302 251.604 119.378 251.761 119.549C251.913 119.714 251.969 119.97 252.078 120.474L252.082 120.495C252.658 123.16 252.213 125.995 251.768 128.828C251.186 132.539 250.603 136.246 252.319 139.565C243.476 139.493 234.616 139.671 225.825 140.71C225.825 139.93 225.831 139.151 225.837 138.372C225.856 135.801 225.876 133.234 225.682 130.664C225.594 129.489 225.471 128.318 225.349 127.145V127.145C225.313 126.802 225.277 126.459 225.242 126.116C225.058 124.308 225.102 124.299 226.412 124.029C226.495 124.012 226.584 123.994 226.678 123.974C227.145 123.875 227.442 123.664 227.755 123.442C227.995 123.271 228.244 123.094 228.585 122.956C228.982 122.795 229.231 122.875 229.529 122.97C229.675 123.016 229.832 123.067 230.025 123.093C230.776 123.2 230.993 123.138 231.413 123.02C231.576 122.973 231.769 122.918 232.036 122.861C232.535 122.755 233.015 122.683 233.479 122.614C234.927 122.399 236.223 122.206 237.45 121.043ZM392.878 66.2677C392.75 66.1929 392.623 66.1185 392.496 66.0437C390.984 69.2541 389.994 72.5999 388.991 75.9898C388.845 76.4837 388.698 76.9785 388.55 77.4744C387.946 79.4965 387.344 81.519 386.743 83.5426C386.633 83.9147 386.498 84.3005 386.361 84.6947C385.906 86.0038 385.419 87.4038 385.667 88.6845C387.576 85.7338 389.393 82.723 391.118 79.6613C391.959 78.1683 392.78 76.6636 393.582 75.1491C393.686 74.953 393.815 74.7442 393.948 74.5291C394.237 74.0616 394.547 73.5628 394.659 73.0875C394.802 72.4777 394.948 72.2972 394.907 72.1872C394.868 72.085 394.668 72.0439 394.156 71.7769C394.565 71.3114 394.831 71.44 395.053 71.5471C395.18 71.6077 395.292 71.662 395.408 71.5945C395.693 71.4287 396.08 70.9143 396.388 70.5069C396.514 70.3392 396.627 70.1891 396.713 70.0898C396.475 70.0218 396.082 69.948 395.625 69.8619C394.45 69.6404 392.854 69.3406 392.416 68.859C391.716 68.0888 392.465 67.4174 393.199 66.7587C393.268 66.697 393.336 66.6359 393.403 66.5743C393.228 66.4721 393.053 66.3699 392.878 66.2677Z" fill="#2A65EA"/>
<path fill-rule="evenodd" clip-rule="evenodd" d="M193.366 196.444C193.159 197.511 192.642 198.014 193.184 198.995C193.644 199.827 194.962 200.373 195.847 200.162L193.366 196.444ZM169.391 158.474L165.026 159.975C166.219 161.149 167.356 162.383 168.671 163.426L169.391 158.474ZM241.392 162.318C239.311 161.265 236.979 161.146 234.696 161.012C235.043 162.891 235.391 164.771 235.738 166.65C237.623 165.206 239.508 163.762 241.392 162.318ZM191.402 307.797C190.986 307.059 188.153 301.357 187.564 301.65C187.251 301.805 187.227 304.979 187.181 305.431C187.019 307.037 186.856 308.642 186.694 310.248C188.37 309.654 190.16 309.162 191.402 307.797ZM171.603 261.705C172.032 262.965 172.461 264.225 172.889 265.485C173.093 266.084 173.213 266.968 173.573 267.497C174.042 268.182 173.688 268.586 174.314 267.835C174.986 267.029 175.187 264.878 175.478 263.89C175.921 262.389 176.364 260.89 176.807 259.389C174.72 259.372 173.454 261.095 171.603 261.705ZM127.742 187.502C125.175 189.262 122.577 191.007 120.344 193.194C122.308 193.071 125.044 194.427 126.894 193.79C127.748 193.973 128.03 193.648 127.742 192.813V191.08V187.502ZM165.796 199.949V210.221C168.193 208.173 170.715 206.271 173.021 204.118C170.612 202.728 168.205 201.338 165.796 199.949ZM251.461 226.566C250.704 231.139 250.662 235.846 250.455 240.474C250.419 241.295 250.103 242.532 250.649 243.251C251.196 243.973 252.756 244.372 253.549 244.757C255.779 245.842 257.995 246.958 260.219 248.055C257.299 240.892 254.38 233.729 251.461 226.566ZM308.091 198.442C313.593 195.729 319.096 193.015 324.599 190.302C319.204 188.011 313.808 185.72 308.413 183.429C308.306 188.433 308.198 193.438 308.091 198.442ZM251.449 211.215C252.455 211.287 252.614 207.445 252.78 206.429C253.097 204.5 253.421 202.573 253.754 200.647C254.421 196.797 255.121 192.952 255.858 189.115C257.333 181.441 258.959 173.796 260.761 166.194C258.824 165.843 257.045 165.592 255.154 165.026C253.626 164.57 251.807 164.818 250.443 163.868C250.267 167.431 251.153 171.218 251.481 174.781C251.862 178.903 252.066 183.003 252.032 187.143C251.966 195.168 251.662 203.194 251.449 211.215ZM124.79 319.932C125.744 319.677 124.446 306.565 124.388 304.674C124.222 299.2 124.19 293.721 124.287 288.245C119.149 291.477 113.892 294.453 108.465 297.137C109.86 298.952 111.167 300.909 112.71 302.598C114.301 304.337 116.125 305.763 117.599 307.636C120.566 311.409 122.599 315.692 124.79 319.932ZM248.428 242.366C248.667 238.422 248.889 234.486 249.286 230.554C249.455 228.881 251.067 219.989 248.485 220.198C247.017 220.317 244.441 222.472 243.095 223.228C241.316 224.225 239.535 225.22 237.748 226.202C234.221 228.141 230.67 230.036 227.13 231.952C234.23 235.423 241.329 238.895 248.428 242.366ZM233.101 160.359C230.16 160.139 227.318 159.92 224.417 159.37C222.853 159.074 221.289 159.115 219.717 158.915C218.59 158.772 216.389 157.844 215.34 158.148C214.022 158.529 213.543 165.156 213.361 166.819C213.069 169.498 212.872 172.748 214.065 175.264C216.365 180.115 222.56 176.329 225.574 174.294C228.158 172.549 231.085 170.782 233.376 168.665C235.406 166.788 233.584 162.783 233.101 160.359ZM248.35 213.111C250.565 212.212 250.53 211.084 250.627 208.759C250.744 205.934 250.812 203.106 250.893 200.28C251.036 195.244 251.171 190.206 251.127 185.167C251.083 180.245 250.843 175.331 250.281 170.44C250.083 168.71 250.28 165.756 249.371 164.281C248.542 162.935 245.968 162.921 244.563 163.004C242.979 163.097 241.697 164.606 240.528 165.559C239.234 166.616 236.574 168.104 236.362 169.679C236.124 171.439 237.088 173.949 237.461 175.656C238.827 181.885 240.489 188.052 242.239 194.181C244.055 200.54 245.895 206.964 248.35 213.111ZM192.063 198.202C192.205 196.802 192.725 195.634 192.023 194.301C191.419 193.154 190.438 192.003 189.7 190.918C187.589 187.809 185.221 184.832 182.921 181.863C180.815 179.144 178.657 176.453 176.45 173.816C175.22 172.347 173.952 170.911 172.692 169.468C171.769 168.412 170.895 166.929 169.59 166.376C168.628 172.438 167.833 178.527 167.213 184.634C166.913 187.586 166.655 190.543 166.438 193.503C166.377 194.338 165.731 197.159 166.144 197.937C166.578 198.754 169.233 199.847 170.045 200.348C172.317 201.749 174.083 203.859 176.244 201.557C177.731 199.971 178.929 197.736 180.592 196.353C181.458 195.632 182.274 195.666 183.246 195.238C184.375 194.741 184.411 194.262 185.761 194.939C188.035 196.078 189.417 197.761 192.063 198.202ZM78.1942 229.394C78.1942 233.591 77.908 237.041 80.7446 240.439C83.2234 243.408 85.7991 244.095 89.2856 245.267C91.3387 245.956 91.4821 245.321 93.1456 244.156C94.7268 243.05 96.4483 242.162 98.0075 241.021C101.368 238.561 104.727 236.024 107.993 233.437C109.091 232.567 108.929 232.864 108.762 231.82C108.609 230.868 107.929 229.658 107.557 228.753C106.884 227.116 106.091 225.532 105.298 223.951C104.397 222.158 103.613 220.209 102.495 218.537C102.03 217.843 101.479 217.215 100.938 216.582C99.7974 215.25 99.8378 215.299 98.4741 216.388C95.5951 218.688 92.9165 221.178 89.6762 222.976C85.8425 225.104 82.0181 227.246 78.1942 229.394ZM165.003 196.882C165.419 190.856 165.888 184.864 166.608 178.865C166.978 175.786 167.409 172.714 167.828 169.641C167.998 168.389 168.656 166.289 168.29 165.073C167.929 163.877 166.339 162.738 165.466 161.872C165.232 161.639 164.511 160.663 164.201 160.619C163.869 160.572 162.619 161.49 162.259 161.697C160.984 162.43 159.733 163.201 158.5 164.003C156.177 165.514 153.927 167.136 151.725 168.819C147.106 172.347 142.702 176.144 138.182 179.796C142.323 183.436 147.421 186.263 152.051 189.211C154.789 190.955 157.541 192.679 160.328 194.341C161.741 195.183 163.381 196.471 165.003 196.882ZM108.391 304.632C105.047 306.849 101.853 309.19 98.0714 310.613C94.3065 312.03 90.5855 312.576 86.6943 313.418C84.7319 313.843 82.8874 314.307 80.8846 314.605C79.7622 314.771 78.025 314.707 77.0017 315.182C76.0904 314.988 75.7657 315.299 76.0285 316.117C76.0383 316.371 76.048 316.626 76.0578 316.88C76.3157 320.417 78.5823 324.673 80.5594 327.549C81.7134 329.228 83.1839 330.79 84.6451 332.202C86.295 333.795 87.2462 334.919 89.546 334.252C93.4226 333.126 96.8437 330.86 100.773 329.861C103.881 329.071 106.463 327.415 109.494 326.558C113.232 325.5 116.931 324.295 120.721 323.412C119.028 320.135 117.514 316.723 115.347 313.721C113.124 310.64 110.673 307.679 108.391 304.632ZM128.901 194.35C135.895 195.747 143.475 197.039 149.734 200.66C152.176 202.073 155.273 204.258 155.988 207.181C156.843 210.674 153.481 212.838 150.673 213.929C147.301 215.238 143.631 215.739 140.058 216.152C138.167 216.371 136.267 216.49 134.367 216.598C132.829 216.686 130.221 216.347 128.815 216.959C127.935 216.782 127.63 217.14 127.9 218.033C127.883 218.353 127.867 218.674 127.851 218.994L127.705 221.875C127.608 223.792 127.511 225.711 127.414 227.629C127.202 231.807 126.991 235.986 126.78 240.164C130.443 237.887 133.395 234.628 136.975 232.2C138.677 231.045 140.367 229.888 142.062 228.737C142.773 228.255 143.207 227.579 143.907 227.13C144.835 226.533 145.657 226.175 146.528 225.394C150.082 222.206 154.035 219.45 157.804 216.523C159.517 215.193 161.391 213.97 163.021 212.544C164.727 211.049 164.491 209.819 164.449 207.671C164.405 205.396 165.238 202.572 164.852 200.379C165.176 199.635 164.927 199.172 164.105 198.99C163.556 198.638 163.008 198.286 162.459 197.933C161.364 197.231 160.269 196.529 159.175 195.827C154.821 193.035 150.467 190.241 146.112 187.449C143.937 186.053 141.762 184.658 139.587 183.263C138.979 182.874 136.998 181.113 136.316 181.165C135.621 181.218 134.415 182.579 133.894 183.013C133.094 183.677 132.318 184.376 131.454 184.957C131.023 185.256 130.574 185.523 130.106 185.759C129.357 185.831 129.098 186.243 129.325 186.995C128.668 189.109 129.029 192.129 128.901 194.35ZM225.882 294.034C224.298 286.608 222.256 277.815 216.079 272.764C209.814 267.641 200.656 269.621 195.755 275.637C193.301 278.65 191.779 282.212 190.649 285.904C189.489 289.693 187.779 294.629 188.092 298.636C188.229 300.393 189.73 302.281 190.587 303.814C191.472 305.397 192.06 307.666 194.145 307.118C197.379 306.267 200.668 304.315 203.695 302.918C206.756 301.504 209.978 300.342 213.152 298.976C215.259 298.07 217.447 297.381 219.549 296.461C221.542 295.59 224.172 295.38 225.882 294.034ZM319.459 249.806C323.876 251.392 326.172 248.853 329.28 245.996C332.225 243.288 335.415 240.685 338.126 237.743C340.923 234.709 343.133 231.123 345.283 227.619C347.457 224.078 350.395 220.253 351.733 216.308C352.414 214.302 352.705 212.079 353.134 210.005C353.237 209.505 353.93 207.648 353.71 207.228C353.407 206.65 351.478 206.589 350.948 206.505C346.733 205.836 342.267 205.803 338.039 206.401C329.86 207.557 323.019 212.158 320.433 220.203C317.403 229.634 318.859 240.117 319.459 249.806ZM290.819 168.003C290.75 169.636 294.653 170.09 295.664 170.471C298.002 171.35 300.326 172.278 302.595 173.319C307.27 175.462 312.254 176.858 316.73 179.449C326.378 185.034 336.852 188.971 346.599 194.313C348.118 195.146 351.086 197.151 352.821 196.981C353.743 196.891 353.056 197.636 353.654 196.166C353.869 195.637 353.94 194.949 354.061 194.382C354.422 192.683 354.702 190.969 355.107 189.28C355.775 186.5 356.456 183.921 356.738 181.064C356.857 179.853 356.988 178.644 357.002 177.426C357.016 176.192 357.3 173.099 356.744 172.031C356.376 171.322 356.302 171.565 355.382 171.365C354.854 171.251 354.301 171.013 353.792 170.854C352.598 170.481 351.403 170.123 350.151 170.014C348.914 169.905 348.125 169.528 346.965 169.309C345.748 169.079 344.498 169.357 343.258 169.037C341.92 168.69 341.281 168.374 339.883 168.506C338.527 168.634 338.137 168.333 336.809 167.962C335.701 167.653 334.381 167.869 333.226 167.776C331.828 167.661 330.434 167.486 329.036 167.375C322.746 166.876 316.382 167.616 310.078 167.557C306.65 167.526 303.296 168.033 299.872 167.876C296.881 167.739 293.788 167.772 290.819 168.003ZM307.18 201.25C304.121 202.419 301.284 204.318 298.447 205.952C295.176 207.837 292.046 209.84 289.018 212.101C283.929 215.903 277.989 220.461 276.65 227.094C275.275 233.902 281.17 239.481 286.696 242.266C292.999 245.442 300.331 247.085 307.235 248.298C306.497 232.626 306.67 216.927 307.18 201.25ZM215.65 238.147C213.794 238.662 212.223 239.764 210.501 240.579C208.959 241.309 207.466 241.86 206.026 242.799C203.678 244.331 200.957 245.643 198.502 246.828C192.429 249.759 186.533 253.398 180.521 256.646C178.927 257.507 178.405 258.051 177.865 259.823C177.279 261.748 176.727 263.686 176.162 265.618C175.636 267.419 174.795 269.345 175.017 271.247C175.21 272.902 176.063 274.462 176.706 275.971C178.326 279.769 180.081 283.506 181.895 287.213C183.523 290.541 185.009 294.072 187.099 297.132C188.723 288.636 190.18 279.116 196.476 272.642C202.767 266.173 212.803 266.081 218.865 272.759C221.745 275.932 223.498 279.927 224.876 283.941C225.6 286.05 226.086 288.199 226.551 290.377C227.049 292.704 226.926 293.939 229.486 293.234C231.518 292.674 233.673 292.227 235.666 291.588C236.7 291.257 237.708 290.885 237.755 290.066C237.814 289.032 236.426 286.914 236.016 285.941C233.898 280.918 231.78 275.895 229.662 270.872C227.363 265.418 225.062 259.964 222.762 254.511C221.614 251.789 220.466 249.069 219.317 246.348C218.27 243.867 217.398 240.184 215.65 238.147ZM307.353 195.734C307.387 193.254 307.428 190.774 307.46 188.294C307.479 186.816 308.136 183.958 306.853 182.903C306.057 182.248 303.697 181.747 302.69 181.299C300.705 180.416 298.555 180.021 296.557 179.144C288.734 175.707 280.592 172.844 272.537 170.074C270.8 169.476 269.025 168.987 267.277 168.399C266.333 168.082 262.837 166.217 261.963 166.705C261.198 167.132 260.622 172.217 260.377 173.273C259.797 175.773 259.243 178.279 258.71 180.79C256.643 190.537 254.909 200.352 253.296 210.184C257.58 208.552 261.687 205.725 265.735 203.539C269.94 201.269 274.131 199.003 278.365 196.785C279.56 196.159 283.764 193.281 284.748 194.41C286.326 196.223 282.566 198.349 281.578 199.126C277.76 202.13 273.726 204.748 269.642 207.368C265.41 210.084 261.007 212.484 256.753 215.15C255.218 216.112 252.767 217.284 252.164 218.909C251.387 221 251.948 223.542 252.655 225.539C254.39 230.448 256.291 235.297 258.301 240.099C259.216 242.283 260.153 244.456 261.108 246.622C262.246 249.201 263.738 249.746 266.216 250.933C276.774 255.989 287.74 260.788 297.881 266.639C296.184 268.601 292.047 265.379 290.372 264.563C287.271 263.052 284.166 261.546 281.066 260.031C275.292 257.208 269.547 254.328 263.741 251.573C267.462 260.063 271.854 268.243 276.724 276.123C275.494 276.541 275.794 276.563 275.022 275.821C274.372 275.197 273.936 273.973 273.496 273.189C272.585 271.569 271.687 269.942 270.77 268.326C268.868 264.972 266.896 261.669 265.159 258.223C263.852 255.632 262.84 251.103 260.155 249.797C256.809 248.168 253.418 246.583 250.072 244.932C250.072 257.84 250.997 270.46 252.354 283.288C252.423 283.935 253.041 285.844 251.795 285.658C251.232 285.573 251.043 282.033 250.944 281.295C250.491 277.906 250.106 274.509 249.792 271.106C249.165 264.314 248.824 257.495 248.78 250.674C247.977 257.306 247.174 263.937 246.371 270.569L245.23 279.995C245.03 281.646 244.83 283.296 244.63 284.947C244.539 285.705 244.597 286.696 244.331 287.419C243.913 288.557 244.054 288.47 242.743 288.989C243.996 280.354 245.153 271.704 246.176 263.038C246.676 258.809 247.144 254.577 247.576 250.341C247.692 249.203 247.805 248.063 247.916 246.923C247.973 246.342 248.472 244.474 248.195 243.992C247.92 243.513 246.1 243.015 245.576 242.771C244.429 242.237 243.282 241.703 242.136 241.166C238.415 239.422 234.696 237.663 231.016 235.834C229.406 235.033 227.718 233.797 225.967 233.37C224.224 232.945 222.957 234.162 221.466 234.935C220.306 235.537 217.573 236.339 216.799 237.361C216.078 238.313 218.317 242.121 218.905 243.525C220.565 247.486 222.224 251.448 223.884 255.409C227.248 263.44 230.614 271.472 233.979 279.504C234.801 281.467 235.624 283.43 236.446 285.393C236.973 286.652 237.853 290.237 239.132 290.377C239.698 290.44 240.628 289.822 241.175 289.644C241.991 289.38 242.744 289.384 243.564 289.244C245.064 288.989 246.622 288.213 248.096 287.668C251.884 286.267 255.811 285.363 259.63 284.055C263.466 282.741 267.239 281.265 271.06 279.95C274.531 278.757 278.032 277.397 281.366 275.843C284.887 274.201 288.498 272.754 291.928 270.934C298.177 267.619 304.357 264.523 309.879 260.457C311.176 259.501 312.559 258.541 313.843 257.518C314.969 256.619 317.117 255.51 317.884 254.329C318.176 253.879 318.427 252.996 318.086 252.461C317.719 251.887 316.098 251.94 315.34 251.837C312.951 251.516 310.562 251.193 308.173 250.872C308.356 252.448 308.541 254.022 308.674 255.604C308.767 256.721 309.426 259.671 308.538 260.546C307.318 259.383 307.71 255.906 307.601 254.357C307.543 253.529 307.753 251.908 307.383 251.174C306.978 250.369 305.859 250.38 304.844 250.16C300.542 249.226 296.279 248.443 292.115 246.963C285.082 244.465 276.675 240.246 275.105 232.109C273.467 223.626 280.663 216.276 286.722 211.545C290.35 208.713 294.209 206.26 298.201 203.984C300.067 202.92 301.931 201.856 303.809 200.815C304.492 200.436 306.734 199.656 307.095 198.994C307.463 198.317 307.275 196.506 307.353 195.734ZM156.883 326.009C156.542 326.177 156.2 326.344 155.859 326.511C159.655 315.662 163.416 304.863 166.589 293.81C168.121 288.475 169.673 283.146 171.257 277.826C171.941 275.532 173.621 272.372 173.154 269.995C172.649 267.422 171.438 264.686 170.501 262.239C164.502 266.021 158.378 269.609 152.28 273.219C146.813 276.457 141.253 279.337 135.748 282.54C132.927 284.181 130.017 285.29 127.072 286.631C124.68 287.721 125.609 291.052 125.643 293.278C125.764 301.135 125.758 309.021 126.234 316.867C126.407 319.725 126.183 323.007 127.998 325.386C130.318 328.428 132.47 331.528 134.586 334.73C135.379 335.93 138.709 342.425 139.951 342.282C140.762 342.19 141.508 339.56 141.914 338.936C142.788 337.592 144.066 336.436 145.229 335.353C150.253 330.678 155.828 327.385 161.621 323.969C167.508 320.498 173.531 317.267 179.529 313.975C180.884 313.232 182.343 312.695 183.689 311.935C184.221 311.635 185.276 311.158 185.611 310.622C186.111 309.819 185.942 307.594 186.046 306.634C186.26 304.673 186.643 302.636 186.664 300.66C186.684 298.709 185.514 297.032 184.666 295.331C180.944 287.86 177.328 280.371 174.09 272.673C171.536 281.611 168.856 290.508 166.351 299.459C165.044 304.133 163.467 308.731 161.933 313.333C161.149 315.683 160.361 318.032 159.578 320.383C158.969 322.214 158.652 324.895 156.883 326.009ZM210.34 157.561C208.366 157.583 206.578 157.292 204.648 156.878C203.94 156.727 203.318 156.663 202.601 156.6C201.787 156.528 201.048 156.086 200.334 155.999C199.795 155.934 198.854 156.161 198.339 156.334C197.145 156.735 197.183 156.533 197.134 157.922C197.056 160.07 196.997 162.217 196.88 164.363C196.417 172.807 195.523 181.17 194.297 189.533C194.049 191.224 193.355 193.441 193.737 195.12C194.081 196.633 195.385 198.25 196.246 199.519C198.017 202.13 202.189 203.42 205.123 204.161C208.218 204.942 211.431 205.229 214.371 205.925C215.185 206.119 216.12 205.778 216.989 205.972C217.792 206.151 218.415 206.593 219.157 206.913C220.976 207.696 223.007 207.84 224.884 208.444C228.607 209.643 232.594 209.571 236.32 210.722C237.273 211.016 238.096 211.757 239.012 212.011C239.85 212.243 240.713 211.97 241.59 212.1C243.449 212.374 245.182 213.011 245.61 215.012C246.747 214.11 246.905 214.347 246.708 212.952C246.583 212.057 246.086 210.967 245.814 210.105C245.12 207.905 244.423 205.707 243.73 203.507C242.36 199.155 240.998 194.798 239.734 190.413C238.604 186.491 237.576 182.539 236.678 178.556C236.221 176.531 235.839 174.498 235.448 172.462C235.334 171.871 235.447 170.932 234.855 170.539C234.318 170.182 233.065 171.462 232.498 171.874C228.538 174.751 219.454 183.262 214.502 178.241C211.836 175.538 211.992 170.785 212.281 167.293C212.459 165.146 212.835 163.027 213.255 160.917C213.36 160.39 214.002 158.698 213.767 158.323C213.513 157.919 210.87 157.679 210.34 157.561ZM349.497 204.533C350.552 204.651 351.606 204.77 352.66 204.889C352.563 204.034 352.65 202.75 352.328 201.954C351.882 200.854 350.79 200.732 349.589 200.276C347.69 199.556 345.752 198.929 343.874 198.154C339.797 196.471 335.739 194.764 331.66 193.081C329.872 192.344 327.771 191.136 325.829 191.739C323.736 192.389 321.67 193.713 319.713 194.683C317.497 195.781 315.282 196.882 313.067 197.983C312.029 198.499 310.99 199.015 309.951 199.532C308.319 200.342 308.102 200.424 307.974 202.276C307.318 211.75 307.367 221.59 307.652 231.076C307.799 235.917 307.635 240.784 307.981 245.617C308.008 245.988 307.98 248.086 308.212 248.372C308.539 248.775 310.839 248.911 311.388 249.012C313.53 249.405 315.688 249.535 317.853 249.729C317.343 238.711 315.469 225.685 321.111 215.606C326.778 205.481 338.891 203.288 349.497 204.533ZM250.984 96.1332C251.619 94.6818 252.713 93.4563 253.648 92.1829C254.154 91.4944 255.028 90.6714 255.352 89.866C255.813 88.7197 255.811 88.9652 255.122 87.9613C254.471 87.0126 254.484 86.9412 253.478 86.7715C252.631 86.6287 251.728 86.8713 250.863 86.7158C249.988 86.5583 247.583 85.8189 248.134 84.4223C248.11 84.4834 249.502 83.7954 249.61 83.676C249.959 83.2941 250.07 82.4799 250.243 82.0183C250.798 80.5385 250.993 79.5806 250.374 78.005C249.449 75.6523 245.791 74.956 243.514 75.7477C242.376 76.1428 241.727 76.981 241.215 78.0343C240.89 78.7033 240.815 79.6701 240.394 80.2525C239.761 81.1293 239.722 81.032 238.408 80.8769C236.735 80.6799 235.363 80.0353 233.778 79.5859C232.051 79.096 230.929 80.0926 229.42 80.896C226.697 82.3474 224.066 82.8511 221.016 83.0814C217.618 83.3381 214.47 82.5166 211.106 82.3049C211.979 86.3368 214.236 89.6102 216.04 93.2612C216.356 93.9033 216.869 94.5595 216.881 95.3023C216.894 96.0021 215.884 96.9542 215.997 97.5332C216.24 98.7685 218.951 99.7572 219.978 100.105C222.882 101.087 226.189 103.011 229.385 102.238C231.138 101.815 232.081 99.0389 233.731 98.835C235.943 98.5601 234.288 101.418 233.877 102.401C237.017 102.88 240.998 102.474 244.003 101.406C245.51 100.871 246.786 100.072 248.161 99.2805C249.874 98.2946 250.229 98.0237 250.984 96.1332ZM196.029 156.14C190.43 156.233 184.75 155.425 179.138 156.168C177.839 156.339 176.556 156.616 175.278 156.911C174.36 157.122 171.444 157.301 170.832 157.986C170.274 158.61 170.27 161.485 170.155 162.296C169.899 164.1 169.967 164.723 171.115 166.118C174.889 170.709 178.82 175.163 182.54 179.805C186.113 184.264 189.046 189.246 192.657 193.641C194.586 188.01 194.701 181.253 195.231 175.348C195.513 172.2 195.77 169.049 196.011 165.898C196.241 162.897 197.022 159.002 196.029 156.14ZM123.564 215.485C124.211 215.485 125.244 215.689 125.873 215.485C126.739 215.761 127.028 215.436 126.742 214.509C126.755 214.184 126.769 213.86 126.783 213.535C126.873 211.443 126.973 209.352 127.069 207.261C127.158 205.349 127.244 203.436 127.319 201.524C127.371 200.218 128.029 196.981 127.503 195.802C127.149 195.01 126.312 195.19 125.294 195.074C124.325 194.964 123.353 194.862 122.39 194.711C121.167 194.52 119.812 194.081 118.567 194.356C117.317 194.632 116.408 195.79 115.427 196.526C113.875 197.69 112.289 198.812 110.723 199.958C107.878 202.042 105.062 204.164 102.24 206.28C101.075 207.154 100.851 206.851 101.419 208.106C101.771 208.882 102.57 209.76 103.056 210.461C104.025 211.856 104.99 213.972 106.233 215.104C108.041 216.752 113.058 215.706 115.461 215.694C118.2 215.68 120.84 215.723 123.564 215.485ZM130.654 215.349C133.029 215.115 135.429 215.216 137.79 214.896C140.356 214.547 142.904 214.031 145.466 213.644C148.02 213.26 155.789 211.702 155.022 207.879C154.212 203.838 148.264 201.417 144.973 200.059C139.833 197.937 134.467 196.801 129.06 195.601C128.382 199.224 128.48 203.113 128.356 206.784C128.289 208.778 128.23 210.774 128.231 212.77C128.231 213.25 128.066 214.246 128.262 214.693C128.721 215.744 129.256 215.349 130.654 215.349ZM122.842 217.085H107.681C109.925 221.743 112.046 226.488 114.465 231.059C116.874 235.611 119.975 239.901 122.709 244.271C123.401 243.515 124.505 242.696 124.976 241.796C125.497 240.802 125.482 239.338 125.568 238.187C125.789 235.198 125.89 232.182 125.965 229.187C126.031 226.563 126.146 223.957 126.347 221.34C126.391 220.766 127.022 217.784 126.661 217.294C126.338 216.858 123.505 217.089 122.842 217.085ZM185.281 125.621C187.839 125.62 190.399 125.588 192.957 125.631C195.277 125.671 198.301 125.265 200.427 126.464C204.758 128.905 196.1 135.174 194.345 136.753C197.183 137.784 201.614 135.736 204.393 134.798C207.829 133.638 211.333 132.859 214.838 131.95C215.714 131.724 219.473 131.279 219.948 130.606C220.419 129.939 219.364 125.912 219.258 125.062C219.159 124.264 219.242 123.019 218.911 122.267C219.114 121.365 218.798 121.049 217.963 121.32C217.674 121.319 217.387 121.317 217.098 121.316C214.965 121.333 212.831 121.433 210.7 121.504C203.375 121.748 196.228 122.074 188.965 123.221C185.589 123.754 182.183 124.41 178.824 125.064C175.997 125.615 176.472 126.077 179.113 126.084C181.178 126.089 183.226 125.782 185.281 125.621ZM395.408 71.5945C395.843 71.0933 396.278 70.5915 396.713 70.0898C395.653 69.7861 394.592 69.482 393.532 69.1783C392.404 68.8555 391.797 68.9294 392.299 67.6658C392.927 66.0828 395.796 65.9014 397.175 65.8417C401.922 65.6359 406.909 67.1508 411.418 68.4853C413.619 69.1367 415.344 70.1446 417.206 71.485C418.019 72.0703 418.957 72.6199 419.668 73.3232C420.408 74.0537 420.715 74.9897 421.438 75.7223C422.623 76.9233 424.14 77.5213 424.721 79.2549C425.388 81.2447 424.592 83.5225 423.604 85.2575C422.603 87.0184 421.116 88.35 419.907 89.9501C418.948 91.2196 416.946 94.6881 420.075 94.2862C421.73 94.0734 423.876 91.243 425.067 90.1154C426.774 88.4982 428.453 86.8439 430.261 85.3377C431.864 84.0022 433.711 82.633 435.855 82.3983C438.114 82.1508 439.243 83.6012 440.344 85.3651C441.383 87.0287 441.549 88.6527 442.28 90.3555C442.632 91.1765 443.081 91.6342 443.288 92.5291C443.606 93.9057 443.64 95.4075 443.802 96.8109C444.057 99.0149 444.298 100.748 443.872 102.907C443.473 104.929 443.365 107.075 443.029 109.132C442.648 111.46 442.332 113.8 441.957 116.129C441.64 118.103 440.432 120.914 441.617 122.749C444.463 127.16 447.878 120.667 448.777 118.241C450.358 113.979 451.162 109.32 452.557 104.97C453.304 102.644 453.956 100.296 454.384 97.8873C454.738 95.8955 454.564 93.469 455.652 91.6949C456.498 90.3168 458.003 89.2704 459.654 89.6909C461.72 90.2176 462.514 93.2133 463.122 95.0344C464.726 99.8374 464.136 104.163 463.483 109.062C463.18 111.33 462.892 113.601 462.372 115.832C462.022 117.336 460.571 120.382 462.728 121.2C465.788 122.361 469.031 113.558 469.902 111.57C472.185 106.363 473.059 101.2 474 95.6212C474.216 94.3385 474.382 93.0284 474.705 91.7677C474.986 90.6704 475.827 89.5613 475.902 88.464C475.978 87.3657 475.253 86.5994 475.996 85.5211C476.614 84.6238 477.731 84.5695 478.74 84.5617C481.111 84.5431 483.378 85.5871 485.584 86.3446C487.634 87.0493 490.672 88.5955 492.885 88.0977C485.942 81.028 479.017 74.0386 470.737 68.5328C466.892 65.9757 463.044 63.5184 458.888 61.4333C454.679 59.3212 449.855 57.8948 445.347 56.617C442.895 55.9216 440.456 55.1338 438.035 54.3362C435.88 53.6262 433.71 53.4917 431.599 52.6863C427.014 50.9371 421.89 50.2593 417.142 49.0192C415.046 48.472 412.926 48.0025 410.825 47.4954C408.616 46.9624 405.514 46.0367 403.264 46.1267C401.342 46.2035 400.693 48.4123 399.769 49.9488C398.427 52.1792 397.282 54.4966 396.227 56.8757C394.065 61.7502 391.783 66.786 390.236 71.8786C389.387 74.6748 388.549 77.4739 387.714 80.2745C386.993 82.699 385.187 86.1964 385.667 88.6845C389.223 83.1885 392.534 77.4807 395.408 71.5945ZM229.866 121.222C227.98 121.308 226.093 121.393 224.207 121.479C226.088 127.68 225.825 134.283 225.825 140.71C234.615 139.67 243.476 139.493 252.319 139.565C250.694 136.422 251.324 132.344 251.787 128.978C252.058 127.008 252.209 125.11 252.169 123.122C252.132 121.258 252.668 119.69 250.698 119.113C249.136 118.656 248.148 119.418 246.66 119.766C244.877 120.182 242.935 120.232 241.119 120.459C237.341 120.93 233.698 121.206 229.866 121.222ZM179.214 133.297C184.879 131.721 190.899 132.302 196.592 131.104C195.297 129.919 192.858 130.621 191.138 130.72C189.183 130.831 187.229 130.913 185.274 131.008C183.367 131.102 178.078 130.957 177.39 133.39C177.998 133.359 178.606 133.328 179.214 133.297ZM386.494 45.4313C379.081 46.0837 371.318 45.9824 363.959 47.2798C355.53 48.7654 346.745 49.6975 338.573 52.3156C330.557 54.8844 322.381 56.6825 314.479 59.6988C306.797 62.6309 299.398 65.7503 292.164 69.6722C288.623 71.5916 285.177 73.6263 281.802 75.8308C278.507 77.983 274.896 79.7473 271.703 82.0286C268.86 84.0594 266.409 85.9221 263.93 88.4102C261.28 91.0704 258.703 93.8025 256.051 96.4584C253.837 98.6741 255.239 104.091 255.379 107.04C255.574 111.128 255.909 115.159 256.409 119.22C256.885 123.09 257.374 127.25 256.746 131.111C256.482 132.735 255.571 135.539 256.006 137.16C256.354 138.458 258.662 139.409 259.839 139.832C261.279 140.35 262.75 140.132 264.228 140.79C265.879 141.526 267.27 142.443 269.023 142.83C271.183 143.307 273.612 143.708 275.832 143.722C277.886 143.736 279.946 144.403 281.993 144.813C285.323 145.482 288.573 145.691 288.366 149.719C288.127 154.366 286.288 158.354 285.193 162.766C286.674 162.766 287.706 162.861 289.061 162.334C290.644 161.72 292.332 161.557 293.995 161.292C297.67 160.705 301.252 160.518 304.95 160.144C311.725 159.458 318.618 159.54 325.398 159.612C328.831 159.649 332.555 159.915 335.941 160.451C339.414 161.001 343.011 161.345 346.378 162.399C349.217 163.289 352.149 163.896 355.046 164.682C356.351 165.036 357.915 165.324 359.149 165.72C360.936 166.294 361.891 167.519 363.955 167.491C363.374 163.658 362.01 160.101 361.187 156.299C360.328 152.328 358.614 148.815 356.722 145.069C355.878 143.398 355.253 141.625 354.44 139.94C353.535 138.066 352.263 136.513 351.17 134.76C348.935 131.175 346.549 127.727 344.353 124.116C342.436 120.964 340.246 117.943 338.147 114.9C335.839 111.555 332.633 109.03 330.015 105.961C328.909 104.664 327.857 103.46 326.619 102.27C325.478 101.175 323.861 98.7504 322.115 98.6369C321.111 98.5714 319.373 99.1377 318.415 99.4413C316.643 100.004 314.764 100.371 312.934 100.866C310.932 101.409 308.964 102.114 306.958 102.63C306.156 102.836 305.202 102.738 304.441 102.971C303.646 103.216 303.01 103.754 302.14 104.001C297.847 105.222 293.579 106.609 289.254 107.721C284.801 108.867 280.28 109.842 275.965 111.464C275.142 111.773 274.226 112.505 273.594 112.024C273.122 111.665 272.818 110.651 272.942 110.06C273.356 108.09 276.498 107.379 278.01 106.588C282.063 104.468 286.09 102.974 290.446 101.535C292.591 100.827 294.729 100.071 296.905 99.4589C298.723 98.9479 300.616 98.0834 302.475 97.8217C304.129 97.589 305.304 96.9356 306.945 96.3571C309.364 95.5048 311.851 94.805 314.309 94.0769C318.509 92.8318 322.961 92.3086 327.259 91.4739C337.216 89.5398 347.553 88.5716 357.714 88.6914C362.836 88.752 368.194 88.6019 373.256 89.4469C374.477 89.6503 377.043 89.6112 377.885 90.71C378.337 91.2998 378.092 92.1775 378.208 92.8167C378.404 93.8954 378.991 94.3982 379.499 95.3811C380.58 90.0626 381.822 84.857 383.217 79.6163C384.479 74.8733 385.647 70.0443 387.333 65.3679C389.117 60.4201 391.279 55.1739 393.946 50.6457C394.495 49.7136 395.863 48.2329 395.981 47.1903C396.103 46.1145 394.6 45.2812 393.567 45.1614C391.25 44.8929 388.77 45.3526 386.494 45.4313ZM436.292 121.426C437.046 114.049 439.251 106.332 438.019 98.9245C437.498 95.7889 437.091 92.7957 435.527 89.9652C434.736 88.5339 434.419 87.4825 432.91 88.3266C431.382 89.1809 429.975 91.291 428.709 92.514C426.381 94.762 423.942 97.077 421.155 98.7465C418.959 100.061 414.597 101.307 412.946 98.4633C411.373 95.7532 413.471 91.9712 414.977 89.7354C416.701 87.1774 419.965 84.8081 418.133 81.652C417.345 80.2935 416.21 79.9375 415.018 79.0461C413.985 78.2744 413.121 77.2749 412.088 76.4895C409.096 74.2132 405.815 73.2381 402.361 71.9373C400.766 71.3363 400.556 70.771 399.635 72.1446C398.634 73.6366 398.086 75.7276 397.363 77.3776C395.914 80.6828 394.368 83.8144 392.5 86.8962C390.614 90.0063 388.944 93.2553 387.162 96.4271C386.489 97.6237 385.857 98.8399 385.062 99.9631C384.629 100.574 384.093 101.119 383.742 101.788C383.222 102.777 383.453 103.679 383.129 104.664C381.732 108.914 379.694 102.981 379.305 101.594C378.862 100.017 377.794 98.787 377.101 97.3156C376.529 96.1004 376.139 94.2945 374.759 93.7223C373.628 93.2539 372.17 93.8969 371.016 93.9595C368.895 94.0749 366.758 93.9028 364.628 94.0358C362.637 94.16 360.649 94.3517 358.658 94.4739C356.665 94.5967 354.674 94.2588 352.707 94.4691C349.178 94.8466 345.57 94.7859 342.048 95.3092C337.915 95.9224 333.825 96.5767 329.681 97.0872C330.644 98.9137 332.64 99.7059 334.218 101.009C335.629 102.174 336.746 103.518 338.167 104.626C339.608 105.751 340.465 107.415 341.658 108.766C342.827 110.09 343.909 111.2 344.934 112.681C349.877 119.834 354.976 126.722 359.053 134.452C361.117 138.365 363.088 142.551 364.498 146.748C366.01 151.251 366.752 156.079 367.651 160.735C368.099 163.055 368.333 165.014 367.843 167.347C367.714 167.903 367.58 168.457 367.441 169.01C367.011 169.672 367.17 170.102 367.919 170.299C368.357 170.939 368.954 171.179 368.992 172.054C369.022 172.719 368.652 173.49 368.082 173.865C366.979 174.589 366.979 173.611 365.843 173.828C365.417 174.059 364.99 174.29 364.565 174.521C364.34 174.178 364.108 173.838 363.871 173.504C363.147 172.813 362.57 172.876 361.623 172.708C362.105 178.266 361.337 183.229 360.117 188.652C359.53 191.259 358.524 193.811 358.017 196.423C357.451 199.341 358.689 200.67 360.603 202.616C360.117 202.871 359.266 203.147 358.865 203.527C358.228 204.133 358.39 204.207 358.391 205.155C358.392 206.891 358.06 208.602 357.788 210.309C357.285 213.471 356.825 216.742 355.74 219.769C353.768 225.267 350.582 230.977 347.336 235.82C345.519 238.53 343.698 241.609 341.421 243.947C339.136 246.293 336.871 248.661 334.591 251.015C330.104 255.648 325.201 258.848 319.826 262.317C317.697 263.691 315.455 265.196 313.624 266.907C311.763 268.645 309.289 269.861 307.065 271.124C306.073 271.687 305.367 272.497 304.296 272.959C303.29 273.393 302.587 273.534 301.743 274.104C299.649 275.516 297.387 276.723 295.081 277.788C292.269 279.087 289.502 280.598 286.613 281.707C285.297 282.212 284.06 282.763 282.785 283.353C281.406 283.992 279.918 284.412 278.503 285.093C277.307 285.669 276.097 286.003 274.88 286.474C273.886 286.858 273.106 287.48 272.092 287.882C269.988 288.716 268.072 289.165 266.027 290.148C263.31 291.454 260.09 292.063 257.228 293.003C254.033 294.053 250.718 295.097 247.439 295.842C246.043 296.159 244.855 296.573 243.507 297.052C242.629 297.365 241.622 297.536 240.649 297.833C237.962 298.655 235.275 299.447 232.573 300.146C227.294 301.512 221.9 303.151 216.781 305.005C214.096 305.977 211.373 307.147 208.798 308.385C205.887 309.783 202.75 310.591 199.828 311.976C194.183 314.65 188.558 317.403 182.979 320.211C180.049 321.686 177.16 323.205 174.3 324.809C173.262 325.391 172.127 325.631 171.096 326.202C169.747 326.949 168.64 328.045 167.259 328.785C161.935 331.636 156.501 334.323 151.611 337.932C149.052 339.82 146.302 341.754 144.09 344.053C143.361 344.812 142.096 345.987 141.964 347.087C141.769 348.716 141.951 347.217 142.514 348.222C143.292 348.317 143.468 348.617 143.044 349.122C142.848 349.358 142.597 349.479 142.291 349.484C141.307 349.684 139.468 348.638 138.678 348.201C137.308 347.444 136.581 346.487 135.701 345.216C133.791 342.459 131.927 339.677 129.96 336.959C128.191 334.514 126.459 331.823 124.446 329.578C123.081 328.056 122.978 328.72 121.46 329.579C120.33 330.217 119.018 330.489 117.848 331.09C113.387 333.382 108.484 335.075 103.908 336.672C102.867 337.036 102.311 337.613 101.396 338.115C100.229 338.755 98.752 339.068 97.5049 339.523C94.0691 340.776 90.6503 342.076 87.2389 343.395C84.6051 344.413 82.0742 345.216 80.0123 347.095C79.1918 347.843 78.1986 348.379 77.3512 349.136C76.3644 350.016 75.03 351.447 73.7877 351.945L73.031 352.538C72.5191 352.181 72.0067 351.824 71.4933 351.469C70.9842 351.115 70.4748 350.763 69.9667 350.409C68.6908 349.519 67.4241 348.617 66.156 347.716C63.2799 345.672 60.3853 343.647 57.71 341.339C52.9578 337.241 48.0265 333.362 43.0574 329.523C37.842 325.494 32.7572 321.278 27.3629 317.491C22.4737 314.058 17.1394 311.16 12.3988 307.537C10.0127 305.713 7.63249 303.878 5.19618 302.112C5.06356 302.016 3.08117 300.796 3.06264 300.66C3.02754 300.411 3.67989 299.76 3.87247 299.551C4.7842 298.557 5.79441 297.672 6.70272 296.667C10.9362 291.984 16.4636 292.148 22.306 291.927C24.9554 291.826 27.8285 293.052 30.3448 293.886C33.4218 294.906 36.39 296.404 39.3622 297.697C45.4873 300.361 51.8091 302.638 57.9962 305.106C60.4291 306.076 62.8528 306.55 65.3262 307.217C67.8356 307.894 70.4206 307.248 73.1046 307.297C74.4976 307.322 75.8145 307.403 77.2172 307.324C78.0499 307.277 79.0094 307.119 79.8319 307.133C80.4984 307.145 81.1903 307.421 81.8036 307.351C84.4886 307.045 87.3247 306.618 90.094 306.267C92.8433 305.92 95.6804 305.747 98.3937 305.203C99.7598 304.929 101.108 304.542 102.422 304.077C103.563 303.674 105.637 303.216 106.573 302.398C107.411 301.667 107.045 301.658 106.578 300.465C106.393 299.993 106.202 299.278 105.928 298.824C105.187 297.597 104.472 297.211 104.903 295.675C105.662 292.968 108.249 291.24 110.464 289.906C115.454 286.904 120.017 283.052 125.271 280.505C136.097 275.257 145.963 268.439 156.521 262.676C168.125 256.341 179.103 248.907 190.869 242.839C201.822 237.191 212.724 231.511 223.767 226.04C229.16 223.37 235.259 220.927 240.151 217.426C237.44 217.089 234.722 216.653 232.002 216.411C230.74 216.299 229.463 216.403 228.208 216.202C226.805 215.977 225.479 215.408 224.078 215.171C221.67 214.763 219.505 213.935 217.095 213.63C214.511 213.303 211.98 212.541 209.384 212.328C203.953 211.881 199.052 209.872 194.291 207.341C193.112 206.714 192.144 207.072 191.015 206.646C190.393 206.411 189.732 205.475 189.033 204.971C187.109 203.585 185.457 201.949 183.628 200.435C179.783 209.09 172.234 214.976 165.029 220.782C161.38 223.722 157.419 226.214 153.732 229.099C150.874 231.336 148.278 233.338 145.227 235.116C142.297 236.823 139.545 239.128 136.752 241.178C134.859 242.568 132.64 243.617 130.627 244.824C128.981 245.81 125.77 247.28 125.321 249.069C124.954 250.53 125.671 252.269 123.447 251.597C121.457 250.996 120.013 248.779 118.854 247.218C115.856 243.177 113.058 239 110.274 234.811C108.779 237.739 106.2 239.847 103.816 242.017C102.367 243.336 100.864 244.559 99.2991 245.736C98.5404 246.308 97.773 246.868 97.0129 247.437C96.7136 247.662 96.0349 248.008 95.8408 248.325C95.3874 249.066 95.6629 248.73 95.7336 249.627C95.8438 251.03 96.3108 252.135 95.5186 253.48C94.7746 254.744 93.1525 255.283 92.0155 256.146C89.3105 258.199 86.4661 260.381 83.4652 261.985C82.7841 262.349 82.14 262.664 81.5057 263.11C80.4467 263.852 80.6403 264.122 79.573 263.41C77.9041 262.295 76.4624 260.445 74.9564 259.102C71.8009 256.286 68.6103 253.506 65.3788 250.779C59.2205 245.58 52.8803 240.641 46.7984 235.35C41.0189 230.322 34.823 225.994 28.8563 221.213C27.2196 219.902 25.6028 218.564 23.9876 217.226C22.5493 216.036 20.2153 214.723 19.1515 213.199C17.6064 210.986 23.6502 207.962 25.4736 207.511C28.6179 206.735 32.6836 207.179 35.8328 207.815C39.1384 208.483 42.5045 210.716 45.5912 212.107C49.0705 213.674 52.6141 215.029 56.1191 216.509C57.6822 217.168 59.3395 217.695 60.7904 218.584C62.3301 219.527 63.7045 220.603 65.3418 221.394C67.2286 222.304 69.1891 223.154 71.1734 223.828C72.0725 224.133 73.0403 224.44 73.9852 224.563C75.323 224.738 75.1416 224.12 76.2528 223.774C77.1972 223.481 77.4215 224.256 78.2708 224.472C79.0704 224.675 79.6681 224.469 80.3604 224.038C81.904 223.077 83.278 221.752 84.8221 220.751C86.2545 219.823 87.8337 218.955 89.1764 217.904C89.7752 217.435 90.2179 216.793 90.8078 216.317C91.7532 215.555 92.1281 215.857 93.2319 215.332C94.1344 214.902 94.953 214.102 95.8116 213.572C96.3445 213.243 97.637 212.827 97.9807 212.295C98.8837 210.897 97.3425 209.926 95.9622 210.338C95.7555 209.13 94.6941 206.264 95.1524 205.132C95.5581 204.13 96.6229 204.318 97.5185 203.787C100.885 201.794 103.369 198.173 106.518 195.831C109.487 193.623 112.106 190.987 115.047 188.739C117.566 186.812 120.319 184.932 122.613 182.854C125.325 180.398 128.798 178.488 131.746 176.296C134.793 174.031 137.623 171.512 140.637 169.222C143.537 167.019 146.384 164.718 149.364 162.62C152.041 160.735 154.848 159.014 157.47 157.103C158.907 156.056 160.477 155.137 162.117 154.45C163.747 153.766 165.173 152.965 166.765 152.229C169.929 150.766 174.049 149.755 177.489 149.336C181.271 148.876 185.069 148.462 188.888 148.459C190.922 148.458 192.898 148.846 194.92 148.969C196.777 149.082 198.786 149.553 200.63 149.491C201.466 149.463 202.191 149.108 203 149.223C203.676 149.318 204.263 149.727 204.988 149.798C206.601 149.958 208.223 149.799 209.854 150.008C213.602 150.488 217.355 151.173 221.111 151.554C225.112 151.961 229.079 152.038 233.059 152.722C236.949 153.391 240.863 154.084 244.73 154.857C252.949 156.5 261.254 158.104 269.342 160.544C271.233 161.114 273.135 161.657 274.952 162.438C275.834 162.817 276.682 163.277 277.602 163.561C278.919 163.967 279.179 164.121 279.857 163.012C281.025 161.104 281.669 158.58 282.517 156.504C283.355 154.45 284.373 152.379 284.859 150.234C283.446 150.01 281.663 150.446 280.204 150.496C278.421 150.557 276.658 150.519 274.877 150.508C271.287 150.486 268.48 149.423 265.083 148.306C262.22 147.365 258.409 146.825 256.225 144.67C255.054 143.514 254.664 143.311 252.904 143.518C251.129 143.727 249.375 144.087 247.582 144.146C240.825 144.371 234.1 145.554 227.312 145.788C225.476 145.851 220.884 146.724 221.185 143.6C221.247 142.952 221.743 142.389 221.839 141.722C221.942 141.006 221.764 140.28 221.652 139.581C221.387 137.927 221.109 136.273 220.844 134.618C214.655 136.611 208.388 138.225 202.081 139.803C199.466 140.457 195.264 141.962 192.562 141.137C189.949 140.339 191.462 136.647 192.276 134.88C187.085 136.068 181.548 138.012 176.255 138.458C174.645 138.594 173.077 138.951 172.702 136.999C172.404 135.442 173.524 133.54 174.096 132.173C170.033 131.809 165.827 131.844 166.591 126.621C167.292 121.829 171.26 120.875 175.486 120C180.701 118.919 186.028 118.558 191.278 117.683C195.845 116.922 200.828 116.073 205.493 116.458C207.962 116.66 210.446 116.707 212.915 116.936C214.08 117.044 215.2 117.225 216.327 117.544C217.367 117.838 218.821 118.748 219.887 118.764C221.496 118.789 223.435 116.607 225.166 116.103C227.309 115.478 229.618 115.365 231.833 115.212C234.343 115.039 236.857 114.943 239.365 114.739C239.937 114.692 242.098 114.834 242.549 114.498C243.207 114.009 242.769 111.498 242.724 110.467C242.681 109.513 242.864 107.726 242.205 107.352C241.586 107.001 239.781 107.482 239.171 107.58C236.645 107.986 234.245 107.939 231.728 107.836C230.566 107.789 229.449 108.099 228.298 107.946C227.063 107.782 225.82 107.366 224.59 107.134C221.925 106.632 219.498 106.007 217.202 104.509C215.186 103.195 212.801 102.306 211.675 100.005C210.85 98.3195 210.515 95.0676 212.94 94.5884C211.288 92.1986 210.148 89.5139 209.273 86.7524C209.114 86.2517 209.009 85.4976 208.771 85.0609C207.932 83.5166 208.711 84.8864 207.514 84.2687C206.332 83.6589 205.48 83.1763 204.556 82.1156C203.083 80.4241 202.463 78.3424 202.276 76.1384C202.024 73.1452 201.552 69.77 201.988 66.7919C202.742 61.6333 206.501 57.7574 210.321 54.6375C212.394 52.9435 215.124 52.3127 217.556 51.2848C219.903 50.2921 222.526 49.2515 224.999 49.0187C227.232 48.8084 229.408 48.0774 231.643 47.7825C234.715 47.3766 237.79 47.5282 240.877 47.405C242.297 47.3482 243.715 47.1473 245.129 46.9942C245.928 46.9076 247.278 47.0001 248.01 46.6827C249.207 46.1624 248.56 47.2548 248.988 45.6636C249.801 42.6366 250.465 39.7979 251.697 36.8565C252.845 34.1161 254.239 31.496 256.081 29.1531C257.809 26.9555 260.05 25.3481 262.085 23.4708C263.594 22.08 265.305 20.8237 267.025 19.699C268.009 19.056 269.105 18.7083 270.066 18.1405C271.26 17.4363 272.313 16.9023 273.656 16.471C276.537 15.5458 279.397 14.5634 282.457 14.6118C285.756 14.6636 289.064 13.8934 292.276 14.87C298.24 16.6838 301.163 23.1671 301.063 29.1208C303.102 28.6103 304.885 27.6274 307.046 27.5433C309.037 27.466 311.401 27.6391 313.356 28.0098C317.15 28.7291 321.053 30.8446 323.315 34.0506C325.473 37.1084 325.796 41.1681 324.47 44.6372C323.835 46.2978 322.828 47.7752 321.755 49.1781C320.969 50.207 319.215 51.3459 319.132 52.7245C333.818 48.272 348.564 45.1335 363.755 43.1021C371.456 42.0728 379.17 42.5882 386.879 41.9999C390.172 41.7486 393.75 42.1002 397.155 42.1134C398.592 42.1192 399.71 41.9187 400.752 40.9857C401.807 40.0419 402.65 38.8859 403.88 40.2483C404.194 40.596 404.26 41.4371 404.682 41.6987C405.194 42.0156 406.682 41.7979 407.295 41.8356C409.436 41.9667 411.525 42.331 413.627 42.7505C417.483 43.5207 421.315 44.2992 425.126 45.2768C432.381 47.1385 439.541 48.939 446.692 51.1489C453.989 53.4037 461.363 56.1857 468.091 59.8357C471.349 61.6035 474.604 63.8104 477.6 65.9972C478.993 67.0144 480.242 68.1147 481.453 69.3411C482.748 70.6522 484.333 71.5368 485.615 72.8576C488.405 75.7306 491.184 78.7781 493.714 81.8907C495.035 83.5157 496.249 85.2296 497.424 86.9617C498.253 88.1769 500.428 90.4019 499.926 91.9717C499.662 92.8098 498.726 93.3962 497.873 93.1908C497.585 93.1223 497.351 92.7507 497.107 92.7155C496.279 92.5981 497.029 92.3066 496.069 92.6983C494.153 93.4773 493.543 95.0397 491.111 94.6842C486.978 94.0793 483.089 92.1213 479.33 90.4142C478.256 94.5317 478.104 98.8002 477.164 102.967C476.247 107.032 474.719 110.909 472.874 114.638C471.255 117.909 469.176 121.396 466.311 123.734C464.125 125.518 458.729 127.734 457.123 123.936C456.441 122.323 457.456 119.816 457.743 118.156C458.128 115.928 458.553 113.694 458.786 111.443C458.974 109.615 459.069 107.776 459.244 105.945C459.396 104.371 459.815 100.99 458.932 99.5993C458.4 98.7611 458.354 99.5836 458.044 100.42C457.669 101.435 457.357 102.441 457.083 103.486C456.498 105.707 455.972 107.943 455.419 110.171C454.433 114.153 453.346 118.047 451.289 121.627C449.463 124.806 446.893 128.294 442.986 128.815C441.157 129.058 438.773 128.22 437.377 126.984C435.811 125.598 436.279 123.311 436.292 121.426Z" fill="#1F1F1F"/>
<path fill-rule="evenodd" clip-rule="evenodd" d="M347.094 284.014C349.241 283.589 351.048 281.87 352.801 280.579C355.037 278.933 357.158 277.138 359.33 275.409C363.421 272.15 367.133 268.575 370.663 264.687C377.627 257.018 382.871 247.145 385.254 237.058C386.46 231.954 387.951 225.974 387.267 220.7C387.029 218.867 386.666 218.531 384.875 218.323C384.066 218.229 382.013 217.996 381.285 218.315C379.397 219.142 378.378 222.662 377.818 224.432C376.164 229.655 375.191 235.065 373.697 240.332C372.232 245.494 369.871 250.732 367.537 255.559C362.343 266.3 355.123 275.285 347.094 284.014ZM389.679 224.714C388.395 239.34 384.346 253.275 375.269 265.054C370.954 270.652 365.879 275.523 360.379 279.948C354.7 284.517 348.9 288.82 342.456 292.227C340.741 293.134 339.024 294.038 337.288 294.903C336.326 295.383 333.896 297.149 332.786 296.87C331.897 296.645 331.665 295.955 331.526 295.057C331.215 293.042 332.52 292.036 333.84 290.742C339.142 285.543 344.461 280.325 349.418 274.795C359.209 263.872 366.563 250.792 370.652 236.679C371.911 232.334 373.035 227.94 374.394 223.626C375.222 220.997 376.396 216.318 379.148 215.008C380.623 214.305 382.343 214.989 383.894 214.568C385.349 214.173 386.314 213.367 387.554 214.718C389.731 217.09 389.828 221.742 389.679 224.714Z" fill="#1F1F1F"/>
<path fill-rule="evenodd" clip-rule="evenodd" d="M1.8089 309.104C0.722139 309.491 0.676796 309.874 0.179004 308.752C-0.0716002 308.187 -0.00382996 307.413 0.0551645 306.825C0.196556 305.419 0.934714 304.12 1.54123 302.873C7.24952 307.596 13.1767 311.852 19.2975 316.025C25.8435 320.487 32.0934 325.449 38.2844 330.392C43.8284 334.819 49.4392 339.115 54.9252 343.597C57.5711 345.759 60.5877 347.434 63.103 349.662C65.1356 351.463 68.5065 352.269 70.2393 354.387C67.4934 356.033 63.8275 357.359 60.7846 355.935C57.4278 354.364 54.853 352.316 51.8658 350.188C50.3265 349.091 48.7259 348.095 47.1624 347.034C45.7879 346.101 44.8172 344.738 43.4257 343.863C40.5014 342.023 37.5014 339.995 34.7267 337.894C31.8765 335.736 28.7259 334.019 25.9761 331.726C23.157 329.374 20.0016 327.816 17.0582 325.675C10.8204 321.138 5.32758 316.036 1.8089 309.104Z" fill="#1F1F1F"/>
<path fill-rule="evenodd" clip-rule="evenodd" d="M170.105 68.2042C170.027 68.6218 169.95 69.0394 169.872 69.4575C169.92 69.4683 173.652 62.2358 174.271 61.3624C176.368 58.4014 179.097 55.9378 181.729 53.4648C187.302 48.2265 193.826 43.9985 199.288 38.6668C201.085 36.9127 204.305 34.2549 203.594 31.2891C202.888 28.3413 196.924 28.9404 194.882 29.7932C191.68 31.1306 189.079 33.9278 186.693 36.365C184.09 39.0238 181.467 41.6527 179.261 44.6616C176.883 47.9062 174.625 51.4203 173.168 55.1857C171.535 59.4039 170.897 63.7693 170.105 68.2042ZM171.331 81.1454C168.798 81.9288 171.973 82.4579 170.981 83.8154C169.893 85.304 168.064 80.7175 167.79 79.8515C166.178 74.735 166.899 68.5191 167.779 63.3243C168.224 60.7037 168.511 58.04 169.111 55.4478C169.696 52.9201 170.97 50.518 172.147 48.2187C174.503 43.6181 177.624 39.3319 181.165 35.5807C184.716 31.8172 188.675 28.0518 193.362 25.7349C197.235 23.8214 203.373 25.149 205.186 29.3286C207.038 33.5997 204.533 38.2521 201.571 41.2552C197.706 45.1717 193.496 49.0618 189.155 52.4389C186.925 54.1749 185.055 56.2742 182.888 58.0855C180.581 60.0137 178.585 61.9531 176.88 64.4466C175.228 66.8628 173.528 69.2771 172.454 72.02C171.279 75.0235 171.331 77.9678 171.331 81.1454Z" fill="#1F1F1F"/>
<path fill-rule="evenodd" clip-rule="evenodd" d="M70.0185 265.329C64.198 261.57 58.3581 258.269 53.2895 253.476C48.285 248.742 43.9126 243.405 38.3427 239.298C35.5637 237.249 32.6954 235.326 29.9656 233.21C27.3747 231.202 24.3967 229.481 22.055 227.191C18.9336 224.136 13.0898 218.461 17.0775 213.908C22.0272 219.812 28.8183 224.466 35.0098 228.948C41.5382 233.674 47.5302 239.188 53.7229 244.337C59.6881 249.298 65.6334 254.304 71.4543 259.395C72.9828 260.733 74.4572 262.138 76.0037 263.453C76.1929 263.614 77.796 264.633 77.796 264.904C77.7964 265.554 76.5537 265.96 76.111 266.141C75.4123 266.427 73.5225 267.137 72.7303 266.897C72.3149 266.77 72.3075 266.431 72.0082 266.23C71.8361 265.904 71.6352 265.597 71.407 265.309C70.9438 265.316 70.4812 265.323 70.0185 265.329Z" fill="#1F1F1F"/>
<path fill-rule="evenodd" clip-rule="evenodd" d="M412.664 199.788C408.515 199.681 402.199 199.669 402.432 205.351C402.547 208.165 404.068 210.232 405.318 212.639C406.63 215.168 407.602 217.781 407.988 220.616C409.545 232.092 405.366 243.303 401.586 253.911C409.704 247.34 415.567 238.195 418.646 228.172C420.138 223.311 420.719 217.063 420.236 212.002C419.995 209.469 419.064 207.199 417.943 204.943C417.379 203.809 416.816 202.515 415.918 201.597C415.019 200.678 413.771 200.372 412.664 199.788ZM398.191 260.484C395.51 256.063 399.73 249.553 401.11 245.242C402.76 240.088 404.282 234.722 404.987 229.346C405.726 223.715 404.772 219.337 402.17 214.363C399.843 209.916 398.462 203.994 401.049 199.29C402.091 197.396 403.629 197.163 405.458 196.408C407.702 195.481 408.321 193.913 411.075 194.162C415.99 194.604 418.264 199.28 420.093 203.263C424.356 212.55 423.197 224.534 419.561 233.859C417.469 239.224 415.082 244.796 411.529 249.365C409.787 251.605 407.739 253.547 405.615 255.416C403.316 257.437 401.256 259.873 398.191 260.484Z" fill="#1F1F1F"/>
<path fill-rule="evenodd" clip-rule="evenodd" d="M117.516 99.2566C111.036 100.563 105.123 103.492 104.085 110.796C103.142 117.434 107.65 123.575 113.185 126.682C119.173 130.043 126.675 130.602 132.64 126.877C138.921 122.955 140.345 115.095 136.523 108.929C132.258 102.048 125.112 100.018 117.516 99.2566ZM121.68 96.0722C129.396 97.2062 136.559 102.714 139.158 110.132C141.838 117.778 139.375 126.186 132.281 130.375C117.945 138.844 98.7835 124.731 102.244 108.511C103.122 104.392 105.617 101.203 109.007 98.7916C112.749 96.1289 117.274 96.0565 121.68 96.0722Z" fill="#1F1F1F"/>
<path fill-rule="evenodd" clip-rule="evenodd" d="M396.019 18.4187C386.722 14.2024 377.424 9.98613 368.127 5.76986C367.746 9.99689 367.364 14.2234 366.983 18.4505C366.879 19.5943 366.457 21.1503 366.637 22.2789C366.83 23.4834 366.419 23.3548 367.984 23.1836C369.986 22.964 371.995 22.4682 373.976 22.1136C377.538 21.476 381.327 21.2941 384.813 20.3561C386.592 19.8774 388.296 19.8172 390.102 19.5277C392.085 19.2099 394.016 18.6211 396.019 18.4187ZM364.569 26.5901C364.569 21.8286 365.096 17.1311 365.531 12.3916C365.922 8.12739 366.072 4.06272 367.46 0C368.756 2.36144 372.346 3.30524 374.568 4.52043C377.628 6.19481 380.888 7.42762 384.021 8.95285C387.099 10.4507 390.063 12.1706 393.144 13.665C394.706 14.4229 396.292 15.1301 397.851 15.8939C398.827 16.3721 401.142 17.1419 401.749 18.0299C403.593 20.7253 397.283 20.986 396.065 21.2236C392.413 21.9381 388.718 22.3405 385.073 23.075C381.674 23.7606 378.269 24.3968 374.858 25.0184C371.482 25.6336 368.004 26.5901 364.569 26.5901Z" fill="#1F1F1F"/>
<path fill-rule="evenodd" clip-rule="evenodd" d="M77.895 144.466C81.5556 144.084 85.2011 143.535 88.8578 143.172C92.3204 142.828 95.3832 142.462 98.5465 140.871C94.2262 139.564 89.8962 138.327 85.5394 137.147C83.3786 136.561 81.2221 135.942 79.0515 135.395C77.3724 134.972 75.9087 134.728 75.2632 132.89C74.5119 130.75 76.6011 131.074 77.9033 131.618C79.6995 132.368 81.6561 132.834 83.5175 133.457C87.6725 134.848 91.8528 136.128 96.0468 137.393C97.3505 137.786 104.905 139.241 102.183 141.768C101.018 142.851 98.4187 143.445 96.9946 144.222C95.1677 145.218 93.179 145.615 91.1468 146.012C86.9114 146.838 82.5161 147.156 78.2285 147.873C76.0389 148.239 73.8498 148.605 71.6607 148.972C70.3779 149.186 69.884 149.165 69.5491 147.73C69.3053 146.687 69.6232 145.644 69.8572 144.635C70.451 142.069 71.1117 139.516 71.7655 136.965C72.0141 135.992 72.4544 131.714 73.3198 131.246C75.2832 130.185 73.7684 136.107 73.6226 136.832C73.0717 139.568 72.4174 142.284 72.1229 145.06C74.0512 144.885 75.9741 144.704 77.895 144.466Z" fill="#1F1F1F"/>
<path fill-rule="evenodd" clip-rule="evenodd" d="M129.799 166.245C130.526 168.074 129.32 168.484 127.856 169.117C125.957 169.94 124.09 170.807 122.157 171.547C118.09 173.104 113.994 174.549 110.024 176.35C102.453 179.785 94.7796 183.083 87.3258 186.76C85.4736 187.674 83.6199 188.585 81.7511 189.465C79.8184 190.375 77.602 191.907 75.5343 192.428C73.7308 192.882 73.5426 191.593 74.6113 190.407C75.9891 188.877 78.1193 187.735 79.8496 186.671C86.9709 182.293 94.743 178.729 102.521 175.717C111.511 172.235 120.525 168.895 129.799 166.245Z" fill="#1F1F1F"/>
<path fill-rule="evenodd" clip-rule="evenodd" d="M149.567 62.4632C149.307 56.9012 150.049 51.324 149.606 45.7766C142.002 52.5377 145.749 62.9864 150.123 70.3226L149.567 62.4632ZM152.859 62.1453C152.907 64.8623 153.061 67.5778 152.797 70.281C152.521 73.1188 153.848 74.5804 155.578 76.6705C154.109 78.1659 150.738 74.6792 149.807 73.6513C147.891 71.5349 146.464 68.7231 145.195 66.1817C142.492 60.7678 140.631 54.9715 142.794 49.0276C143.596 46.8246 144.577 43.8294 146.7 42.5467C149.032 41.1383 150.815 43.1247 151.783 45.1678C154.144 50.1528 152.344 56.7946 152.859 62.1453Z" fill="#1F1F1F"/>
<path fill-rule="evenodd" clip-rule="evenodd" d="M233.413 338.623C236.919 338.902 240.372 339.176 243.879 339.399C243.274 334.578 242.668 329.757 242.063 324.936C240.035 325.408 238.006 325.878 235.977 326.349C235.018 326.571 233.547 326.63 232.698 327.11C232.381 327.184 232.063 327.257 231.746 327.331C231.737 327.957 231.73 328.583 231.725 329.209C231.701 331.06 231.648 332.909 231.571 334.759C231.539 335.534 231.269 336.669 231.454 337.437C231.126 338.214 231.335 338.544 232.082 338.428C232.526 338.493 232.969 338.558 233.413 338.623ZM230.999 342.108C228.25 340.736 229.002 336.542 229.006 333.872C229.009 332.174 229.129 330.487 229.173 328.791C229.204 327.625 228.938 326.183 229.338 325.056C230.049 323.053 233.53 323.107 235.32 323.248C236.647 323.351 237.758 323.284 239.118 323.197C239.788 323.154 240.536 323.282 241.195 323.083C241.337 323.04 242.678 322.103 242.618 322.1C245.022 322.193 245.054 327.974 245.21 329.441C245.596 333.058 245.945 336.68 246.259 340.304C246.342 341.263 246.698 342.347 245.79 342.894C244.971 343.388 242.799 342.9 241.894 342.872C238.242 342.762 234.61 342.19 230.999 342.108Z" fill="#1F1F1F"/>
<path fill-rule="evenodd" clip-rule="evenodd" d="M402.562 127.277C404.151 128.712 403.387 130.192 402.867 131.983C402.554 133.059 400.835 136.589 401.309 137.595C401.858 138.758 404.433 139.044 405.534 139.411C407.452 140.051 409.379 140.694 411.194 141.595C412 141.996 414.905 142.916 415.45 143.663C415.762 144.092 415.875 144.427 415.641 144.979C415.229 145.948 414.641 145.436 413.637 145.228C409.05 144.277 404.502 143.061 400.247 141.056C399.061 143.818 398.057 146.638 397.053 149.471C396.759 150.302 396.478 152.188 395.361 152.323C393.999 152.486 393.981 150.656 394.071 149.669C394.203 148.227 394.948 146.69 395.397 145.325C395.769 144.199 397.07 141.853 396.909 140.692C396.8 139.893 396.314 139.949 395.449 139.635C394.631 139.338 393.813 139.044 392.996 138.744C391.686 138.263 390.381 137.781 389.106 137.211C388.406 136.898 386.942 136.532 386.436 135.883C386.142 135.506 385.814 134.149 386.185 133.774C387.052 132.894 392.821 135.262 394.007 135.585C394.794 135.8 395.585 135.963 396.349 136.245C396.638 136.352 396.98 136.786 397.293 136.802C398.62 136.869 398.725 135.846 399.137 134.748C400.093 132.197 401.131 129.594 402.562 127.277Z" fill="#1F1F1F"/>
<path fill-rule="evenodd" clip-rule="evenodd" d="M71.8125 178.035C71.1051 176.295 78.6139 174.194 80.0079 173.608C83.41 172.18 87.055 171.316 90.5776 170.225C94.0417 169.152 97.4907 167.997 100.898 166.755C101.951 166.371 109.539 162.665 109.936 163.207C111.25 165 95.3288 170.631 93.7774 171.192C86.5733 173.793 79.1346 175.791 71.8125 178.035Z" fill="#1F1F1F"/>
<path fill-rule="evenodd" clip-rule="evenodd" d="M394.769 42.0074C392.823 42.0269 390.015 42.5796 388.229 41.7887C390.409 41.8614 392.589 41.9347 394.769 42.0074Z" fill="#1F1F1F"/>
<path fill-rule="evenodd" clip-rule="evenodd" d="M121.68 96.0715L117.352 96.0559C118.796 95.7205 120.239 95.5178 121.68 96.0715Z" fill="#1F1F1F"/>
<path fill-rule="evenodd" clip-rule="evenodd" d="M347.064 94.9126C348.085 94.9072 349.106 94.9018 350.12 94.896C349.097 94.9018 348.081 94.9072 347.064 94.9126Z" fill="#1F1F1F"/>
<path fill-rule="evenodd" clip-rule="evenodd" d="M436.292 121.426C436.284 122.521 436.277 123.616 436.268 124.707C436.274 123.61 436.283 122.518 436.292 121.426Z" fill="#1F1F1F"/>
<path fill-rule="evenodd" clip-rule="evenodd" d="M235.321 323.248C234.237 323.326 233.153 323.404 232.07 323.482C233.154 323.404 234.237 323.326 235.321 323.248Z" fill="#1F1F1F"/>
<path fill-rule="evenodd" clip-rule="evenodd" d="M241.428 114.571C240.327 114.66 239.226 114.749 238.127 114.839C239.227 114.749 240.328 114.66 241.428 114.571Z" fill="#1F1F1F"/>
<path fill-rule="evenodd" clip-rule="evenodd" d="M355.334 94.5522C356.113 94.5508 356.892 94.5493 357.664 94.5479C356.883 94.5498 356.109 94.5513 355.334 94.5522Z" fill="#1F1F1F"/>
<path fill-rule="evenodd" clip-rule="evenodd" d="M198.605 116.707C197.637 116.794 196.668 116.881 195.701 116.969C196.668 116.881 197.637 116.794 198.605 116.707Z" fill="#1F1F1F"/>
<path fill-rule="evenodd" clip-rule="evenodd" d="M241.361 47.4016C240.393 47.4074 239.424 47.4133 238.457 47.4191C239.422 46.9065 240.391 47.0388 241.361 47.4016Z" fill="#1F1F1F"/>
<path fill-rule="evenodd" clip-rule="evenodd" d="M64.6363 215.353C63.8309 215.31 63.1746 215.702 62.7202 214.932C63.4637 214.35 63.8928 215.02 64.6363 215.353Z" fill="#1F1F1F"/>
<path fill-rule="evenodd" clip-rule="evenodd" d="M214.016 150.503L211.502 150.219L214.016 150.503Z" fill="#1F1F1F"/>
<path fill-rule="evenodd" clip-rule="evenodd" d="M230.999 342.109C231.554 342.121 232.109 342.134 232.658 342.146C232.101 342.133 231.55 342.121 230.999 342.109Z" fill="#1F1F1F"/>
<path fill-rule="evenodd" clip-rule="evenodd" d="M359.995 43.5933C359.13 43.6707 358.265 43.7482 357.4 43.8257C358.265 43.7477 359.13 43.6707 359.995 43.5933Z" fill="#1F1F1F"/>
<path fill-rule="evenodd" clip-rule="evenodd" d="M85.7461 306.898C84.9148 306.901 84.084 306.905 83.2532 306.908C84.0845 306.905 84.9153 306.901 85.7461 306.898Z" fill="#1F1F1F"/>
<path fill-rule="evenodd" clip-rule="evenodd" d="M18.9313 292.119C18.0922 292.121 17.2536 292.122 16.415 292.124C17.2541 292.122 18.0922 292.121 18.9313 292.119Z" fill="#1F1F1F"/>
<path fill-rule="evenodd" clip-rule="evenodd" d="M230.934 115.265C230.082 115.349 229.23 115.432 228.378 115.516C229.231 115.432 230.082 115.349 230.934 115.265Z" fill="#1F1F1F"/>
<path fill-rule="evenodd" clip-rule="evenodd" d="M207.168 116.651C206.33 116.554 205.492 116.457 204.655 116.361C205.485 116.523 206.407 115.881 207.168 116.651Z" fill="#1F1F1F"/>
<path fill-rule="evenodd" clip-rule="evenodd" d="M283.067 150.391C283.589 150.332 284.321 150.149 284.859 150.235C284.789 150.542 283.268 150.39 283.067 150.391Z" fill="#1F1F1F"/>
<path fill-rule="evenodd" clip-rule="evenodd" d="M229.907 216.329C230.469 216.339 231.032 216.35 231.588 216.36C231.024 216.349 230.466 216.339 229.907 216.329Z" fill="#1F1F1F"/>
<path fill-rule="evenodd" clip-rule="evenodd" d="M179.131 149.177C178.31 149.256 177.489 149.336 176.668 149.415C177.489 149.335 178.31 149.256 179.131 149.177Z" fill="#1F1F1F"/>
<path fill-rule="evenodd" clip-rule="evenodd" d="M87.2087 146.37C87.6563 146.383 88.1039 146.395 88.5456 146.407C88.0961 146.395 87.6524 146.383 87.2087 146.37Z" fill="#1F1F1F"/>
<path fill-rule="evenodd" clip-rule="evenodd" d="M208.206 149.796C207.504 149.782 206.801 149.768 206.1 149.755C206.802 149.768 207.504 149.782 208.206 149.796Z" fill="#1F1F1F"/>
<path fill-rule="evenodd" clip-rule="evenodd" d="M77.895 144.466C77.1851 144.554 76.4753 144.641 75.7664 144.728C76.4767 144.641 77.1856 144.554 77.895 144.466Z" fill="#1F1F1F"/>
<path fill-rule="evenodd" clip-rule="evenodd" d="M175.272 138.418C175.711 138.435 176.149 138.453 176.582 138.472C176.141 138.455 175.707 138.437 175.272 138.418Z" fill="#1F1F1F"/>
<path fill-rule="evenodd" clip-rule="evenodd" d="M208.718 212.37C209.163 212.341 209.607 212.313 210.047 212.283C209.6 212.312 209.159 212.341 208.718 212.37Z" fill="#1F1F1F"/>
<path fill-rule="evenodd" clip-rule="evenodd" d="M242.77 154.461C242.054 154.372 241.338 154.282 240.623 154.193C241.338 154.282 242.054 154.372 242.77 154.461Z" fill="#1F1F1F"/>
<path fill-rule="evenodd" clip-rule="evenodd" d="M70.0186 265.328C70.4832 265.322 70.9478 265.316 71.4071 265.309C70.941 265.315 70.4793 265.321 70.0186 265.328Z" fill="#1F1F1F"/>
<path fill-rule="evenodd" clip-rule="evenodd" d="M31.8688 207.42C31.1287 207.345 30.3885 207.27 29.6479 207.195C30.3881 207.27 31.1282 207.345 31.8688 207.42Z" fill="#1F1F1F"/>
<path fill-rule="evenodd" clip-rule="evenodd" d="M16.0768 292.221C15.3494 292.305 14.6219 292.389 13.894 292.473C14.6224 292.389 15.3494 292.305 16.0768 292.221Z" fill="#1F1F1F"/>
<path fill-rule="evenodd" clip-rule="evenodd" d="M412.627 94.7938C412.57 95.4246 412.513 96.0555 412.455 96.6839C412.512 96.0521 412.569 95.4232 412.627 94.7938Z" fill="#1F1F1F"/>
<path fill-rule="evenodd" clip-rule="evenodd" d="M90.0934 306.268C89.3616 306.351 88.6298 306.436 87.8984 306.52C88.6303 306.435 89.3621 306.351 90.0934 306.268Z" fill="#1F1F1F"/>
<path fill-rule="evenodd" clip-rule="evenodd" d="M82.9136 306.995C82.1731 307.513 81.433 307.542 80.6919 306.997C81.4325 306.996 82.1731 306.996 82.9136 306.995Z" fill="#1F1F1F"/>
<path fill-rule="evenodd" clip-rule="evenodd" d="M68.8723 307.616C68.1541 307.616 67.4364 307.617 66.7188 307.617C67.4369 307.617 68.1546 307.616 68.8723 307.616Z" fill="#1F1F1F"/>
<path fill-rule="evenodd" clip-rule="evenodd" d="M152.859 62.1453C152.797 61.5062 152.736 60.8675 152.674 60.2308C152.736 60.871 152.797 61.5081 152.859 62.1453Z" fill="#1F1F1F"/>
<path fill-rule="evenodd" clip-rule="evenodd" d="M231.286 47.8735C230.564 47.9627 229.842 48.0514 229.121 48.1401C229.843 48.0514 230.564 47.9627 231.286 47.8735Z" fill="#1F1F1F"/>
<path fill-rule="evenodd" clip-rule="evenodd" d="M233.843 47.5352C233.109 47.617 232.376 47.6994 231.643 47.7817C232.376 47.6994 233.109 47.617 233.843 47.5352Z" fill="#1F1F1F"/>
<path fill-rule="evenodd" clip-rule="evenodd" d="M119.95 132.699C120.402 132.692 120.853 132.686 121.298 132.679C120.845 132.686 120.398 132.692 119.95 132.699Z" fill="#1F1F1F"/>
<path fill-rule="evenodd" clip-rule="evenodd" d="M185.281 125.62C187.676 125.225 190.07 125.093 192.464 125.619L185.281 125.62Z" fill="#1F1F1F"/>
<path fill-rule="evenodd" clip-rule="evenodd" d="M249.145 98.6043C249.643 97.2986 249.767 96.8086 250.984 96.1328C250.477 97.4018 250.398 98.0805 249.145 98.6043Z" fill="#1F1F1F"/>
<path fill-rule="evenodd" clip-rule="evenodd" d="M307.538 227.821C307.586 229.179 307.634 230.536 307.682 231.892C307.633 230.534 307.586 229.178 307.538 227.821Z" fill="#1F1F1F"/>
<path fill-rule="evenodd" clip-rule="evenodd" d="M394.377 45.1433C393.294 45.1678 392.211 45.1929 391.132 45.2174C392.217 45.1929 393.297 45.1678 394.377 45.1433Z" fill="#1F1F1F"/>
<path fill-rule="evenodd" clip-rule="evenodd" d="M250.071 251.948C250.109 253.08 250.147 254.212 250.184 255.343C250.146 254.21 250.109 253.08 250.071 251.948Z" fill="#1F1F1F"/>
<path fill-rule="evenodd" clip-rule="evenodd" d="M117.33 215.691C118.424 215.699 119.518 215.707 120.612 215.714C119.518 215.707 118.424 215.699 117.33 215.691Z" fill="#1F1F1F"/>
<path fill-rule="evenodd" clip-rule="evenodd" d="M210.34 157.561C209.68 157.567 209.021 157.573 208.369 157.581C209.03 157.575 209.685 157.568 210.34 157.561Z" fill="#1F1F1F"/>
<path fill-rule="evenodd" clip-rule="evenodd" d="M208.192 121.587C207.65 121.569 207.107 121.55 206.571 121.534C207.115 121.553 207.654 121.57 208.192 121.587Z" fill="#1F1F1F"/>
<path fill-rule="evenodd" clip-rule="evenodd" d="M130.654 215.348C131.509 215.265 132.365 215.181 133.22 215.097C132.365 215.181 131.509 215.265 130.654 215.348Z" fill="#1F1F1F"/>
<path fill-rule="evenodd" clip-rule="evenodd" d="M112.012 215.734C112.85 215.721 113.688 215.708 114.526 215.695C113.688 215.708 112.85 215.721 112.012 215.734Z" fill="#1F1F1F"/>
<path fill-rule="evenodd" clip-rule="evenodd" d="M120.96 215.712C121.828 215.636 122.695 215.561 123.564 215.485C122.696 215.56 121.828 215.636 120.96 215.712Z" fill="#1F1F1F"/>
<path fill-rule="evenodd" clip-rule="evenodd" d="M124.125 217.093C123.693 217.09 123.262 217.087 122.836 217.085C123.269 217.088 123.697 217.09 124.125 217.093Z" fill="#1F1F1F"/>
<path fill-rule="evenodd" clip-rule="evenodd" d="M307.159 197.644C307.224 197.005 307.288 196.368 307.352 195.732C307.288 196.371 307.224 197.007 307.159 197.644Z" fill="#1F1F1F"/>
<path fill-rule="evenodd" clip-rule="evenodd" d="M177.581 133.157C178.125 133.204 178.669 133.25 179.215 133.297C178.607 133.328 177.998 133.359 177.391 133.39C177.394 133.265 177.457 133.188 177.581 133.157Z" fill="#1F1F1F"/>
<path fill-rule="evenodd" clip-rule="evenodd" d="M317.424 240.455C317.389 239.874 317.354 239.293 317.32 238.715C317.355 239.298 317.389 239.877 317.424 240.455Z" fill="#1F1F1F"/>
<path fill-rule="evenodd" clip-rule="evenodd" d="M187.351 130.941C186.914 130.949 186.477 130.958 186.045 130.966C186.484 130.957 186.917 130.949 187.351 130.941Z" fill="#1F1F1F"/>
<path fill-rule="evenodd" clip-rule="evenodd" d="M347.313 204.276C348.041 204.362 348.77 204.447 349.498 204.532C348.769 204.447 348.041 204.362 347.313 204.276Z" fill="#1F1F1F"/>
<path fill-rule="evenodd" clip-rule="evenodd" d="M196.029 156.14C195.58 156.147 195.132 156.153 194.69 156.161C195.14 156.155 195.584 156.147 196.029 156.14Z" fill="#1F1F1F"/>
<path fill-rule="evenodd" clip-rule="evenodd" d="M170.105 68.2042C170.576 68.4561 170.331 69.5632 169.873 69.4575C169.95 69.0394 170.028 68.6218 170.105 68.2042Z" fill="#1F1F1F"/>
<path fill-rule="evenodd" clip-rule="evenodd" d="M412.664 199.788C412.232 199.777 411.8 199.765 411.374 199.754C411.807 199.766 412.236 199.777 412.664 199.788Z" fill="#1F1F1F"/>
<path fill-rule="evenodd" clip-rule="evenodd" d="M149.567 62.4631C149.521 61.4875 149.476 60.5124 149.431 59.5398C149.476 60.5164 149.522 61.4895 149.567 62.4631Z" fill="#1F1F1F"/>
<path fill-rule="evenodd" clip-rule="evenodd" d="M231.417 338.33C232.082 338.427 232.748 338.525 233.414 338.623C232.747 338.525 232.082 338.427 231.417 338.33Z" fill="#1F1F1F"/>
<path fill-rule="evenodd" clip-rule="evenodd" d="M227.015 87.1799C224.668 87.6645 222.257 87.9178 219.964 88.6313C219.392 88.8093 217.515 89.9027 216.83 89.6147C215.789 89.1761 216.316 88.0508 216.754 87.4503C217.927 85.8444 220.026 84.9446 221.95 84.9647C223.871 84.9852 226.507 84.9148 227.015 87.1799Z" fill="#1F1F1F"/>
<path fill-rule="evenodd" clip-rule="evenodd" d="M220.493 91.4886C223.078 93.3033 225.053 94.1973 225.271 90.1184C228.073 90.5013 226.817 95.0266 224.698 95.368C222.39 95.7391 220.851 93.4276 220.493 91.4886Z" fill="#1F1F1F"/>
</svg>
